<?xml version="1.0" encoding="UTF-8" standalone="no"?>
<svg
   version="1.1"
   width="150"
   height="150"
   viewBox="0 0 150 150"
   id="npm"
   xml:space="preserve"
   xmlns="http://www.w3.org/2000/svg"
   xmlns:svg="http://www.w3.org/2000/svg"><defs
     id="defs1623" /><g
     style="opacity:1;fill:none;fill-rule:nonzero;stroke:none;stroke-width:0;stroke-linecap:butt;stroke-linejoin:miter;stroke-miterlimit:10;stroke-dasharray:none"
     transform="matrix(1.333568,0,0,1.333568,14.382483,34.666437)"
     id="g1744">
	<path
   d="M 88.119,23.338 C 87.084,19.466 84.034,16.416 80.162,15.381 73.144,13.5 45,13.5 45,13.5 c 0,0 -28.144,0 -35.162,1.881 C 5.966,16.416 2.916,19.466 1.881,23.338 0,30.356 0,45 0,45 0,45 0,59.644 1.881,66.662 2.916,70.534 5.966,73.584 9.838,74.619 16.856,76.5 45,76.5 45,76.5 c 0,0 28.144,0 35.162,-1.881 3.872,-1.035 6.922,-4.085 7.957,-7.957 C 90,59.644 90,45 90,45 90,45 90,30.356 88.119,23.338 Z M 36,58.5 v -27 L 59.382,45 Z"
   style="opacity:1;fill:#000000;fill-rule:nonzero;stroke:none;stroke-width:2.10713;stroke-linecap:butt;stroke-linejoin:miter;stroke-miterlimit:10;stroke-dasharray:none"
   stroke-linecap="round"
   id="path1742" />
</g></svg>
