<?xml version="1.0" encoding="UTF-8" standalone="no"?>
<!-- Generator: Adobe Illustrator 24.1.0, SVG Export Plug-In . SVG Version: 6.00 Build 0)  -->

<svg
   version="1.1"
   id="Calque_1"
   x="0px"
   y="0px"
   viewBox="0 0 300 300"
   style="enable-background:new 0 0 300 300;"
   xml:space="preserve"
   sodipodi:docname="favicon.svg"
   inkscape:version="1.2.2 (b0a8486541, 2022-12-01)"
   inkscape:export-filename="./favicon-128.png"
   inkscape:export-xdpi="40.959999"
   inkscape:export-ydpi="40.959999"
   xmlns:inkscape="http://www.inkscape.org/namespaces/inkscape"
   xmlns:sodipodi="http://sodipodi.sourceforge.net/DTD/sodipodi-0.dtd"
   xmlns="http://www.w3.org/2000/svg"
   xmlns:svg="http://www.w3.org/2000/svg"
   xmlns:rdf="http://www.w3.org/1999/02/22-rdf-syntax-ns#"
   xmlns:cc="http://creativecommons.org/ns#"
   xmlns:dc="http://purl.org/dc/elements/1.1/"><metadata
   id="metadata17"><rdf:RDF><cc:Work
       rdf:about=""><dc:format>image/svg+xml</dc:format><dc:type
         rdf:resource="http://purl.org/dc/dcmitype/StillImage" /></cc:Work></rdf:RDF></metadata><defs
   id="defs15" /><sodipodi:namedview
   pagecolor="#ffffff"
   bordercolor="#666666"
   borderopacity="1"
   objecttolerance="10"
   gridtolerance="10"
   guidetolerance="10"
   inkscape:pageopacity="0"
   inkscape:pageshadow="2"
   inkscape:window-width="1855"
   inkscape:window-height="1050"
   id="namedview13"
   showgrid="false"
   inkscape:zoom="1.6081284"
   inkscape:cx="96.696259"
   inkscape:cy="170.3844"
   inkscape:window-x="65"
   inkscape:window-y="30"
   inkscape:window-maximized="1"
   inkscape:current-layer="Calque_1"
   showguides="false"
   inkscape:guide-bbox="true"
   inkscape:showpageshadow="2"
   inkscape:pagecheckerboard="0"
   inkscape:deskcolor="#d1d1d1" />
<style
   type="text/css"
   id="style2">
	.st0{fill:#5AB88F;}
	.st1{fill:#E73452;}
</style>

<circle
   style="fill:#ebebec;fill-opacity:1;stroke-width:73.1907;stroke-linecap:round;stroke-linejoin:round;paint-order:stroke fill markers"
   id="path46106"
   cx="150"
   cy="150"
   r="150" /><g
   id="g1368"><path
     id="path14454-9"
     style="fill:#a6cc1d;fill-opacity:1;stroke-width:73.1909;stroke-linecap:round;stroke-linejoin:round;paint-order:stroke fill markers"
     d="m 53.973733,235.05689 180.629897,13.84727 v 50.83575 H 35.912033 Z"
     sodipodi:nodetypes="ccccc" /><path
     id="path14456-1"
     style="fill:#06aed5;fill-opacity:1;stroke-width:73.1909;stroke-linecap:round;stroke-linejoin:round;paint-order:stroke fill markers"
     d="m 83.824792,220.64779 c -3.720094,15.44515 38.826748,31.81204 43.706388,79.09215 H 36.170701 c 18.947911,-26.43681 40.930017,-41.78308 39.899115,-72.2713 z"
     sodipodi:nodetypes="ccccc" /><path
     style="fill:#06aed5;fill-opacity:1;fill-rule:evenodd;stroke:none;stroke-width:0.999999px;stroke-linecap:butt;stroke-linejoin:miter;stroke-opacity:1"
     d="M 271.5223,196.3799 C 267.11153,322.91332 135.84332,301.84855 80.73157,256.23419 l 47.09359,-42.04956 c 37.40222,22.79915 68.21405,37.57819 143.69714,-17.80473 z"
     id="path14458-2"
     sodipodi:nodetypes="cccc" /><path
     id="path14464-7"
     style="fill:#eee21e;fill-opacity:1;stroke-width:73.1909;stroke-linecap:round;stroke-linejoin:round;paint-order:stroke fill markers"
     d="m 223.03583,57.37835 a 44.014228,44.014228 0 0 0 -44.01453,44.01343 44.014228,44.014228 0 0 0 44.01453,44.01452 44.014228,44.014228 0 0 0 8.65646,-0.88793 l -2.25444,155.22117 h 33.4895 L 238.16247,142.69776 a 44.014228,44.014228 0 0 0 28.88789,-41.30598 44.014228,44.014228 0 0 0 -44.01453,-44.01343 z" /><path
     id="rect14472-0"
     style="fill:#a6cc1d;fill-opacity:1;stroke:none;stroke-width:73.1909;stroke-linecap:round;stroke-linejoin:round;paint-order:stroke fill markers"
     d="m 229.51028,119.3922 a 20.850062,20.850062 0 0 0 -19.08552,12.49273 27.076327,27.076327 0 0 0 -20.03957,-8.86963 27.076327,27.076327 0 0 0 -27.0757,27.07576 27.076327,27.076327 0 0 0 2.8396,12.0184 51.269541,51.269541 0 0 0 -2.95476,8.07659 27.07633,27.07633 0 0 0 -11.81052,22.36114 27.07633,27.07633 0 0 0 24.61882,26.9521 51.269541,51.269541 0 0 0 1.20443,1.25887 v 78.98138 h 57.39622 V 230.0222 a 51.269541,51.269541 0 0 0 21.18972,-18.71779 27.076327,27.076327 0 0 0 17.79793,-25.41718 27.076327,27.076327 0 0 0 -2.54442,-11.45984 20.850062,20.850062 0 0 0 2.34291,-9.57315 20.850062,20.850062 0 0 0 -20.84968,-20.84965 20.850062,20.850062 0 0 0 -2.5688,0.17163 20.850062,20.850062 0 0 0 0.38986,-3.93437 20.850062,20.850062 0 0 0 -20.8507,-20.84965 z" /><g
     id="g54865"
     transform="matrix(2.0627063,0,0,2.0627063,-401.23613,-299.44071)"
     style="stroke-width:0.443026"><path
       id="path14484-9"
       style="fill:#4d5057;fill-opacity:1;stroke-width:35.4829;stroke-linecap:round;stroke-linejoin:round;paint-order:stroke fill markers"
       d="m 264.32896,145.6723 -6.65799,19.04173 h 0.0129 v 35.23403 l -0.39532,-1.11983 -0.19172,0.54312 -0.13436,-0.37879 -3.14451,8.91057 v -7.96076 h 5.1e-4 l -5.1e-4,-0.001 -5.57692,-17.12402 -5.55109,17.12402 h -0.002 v 18.26038 l 1.572,0.3421 v 71.93876 h 29.67209 9.6852 v -71.91189 l 1.5689,-0.49661 V 199.8137 h -0.001 l -5.06429,-17.11575 -5.05137,17.11575 h -10e-4 v 8.58914 l -3.38223,-9.57461 -0.19172,0.5395 -0.13074,-0.37517 -0.39584,1.11983 v -35.39836 h 0.0196 z" /><path
       id="circle14508-3"
       style="fill:#fefeff;stroke-width:35.4829;stroke-linecap:round;stroke-linejoin:round;paint-order:stroke fill markers"
       d="m 271.42348,213.59319 a 7.2585363,7.2585363 0 0 1 -7.25853,7.25853 7.2585363,7.2585363 0 0 1 -7.25854,-7.25853 7.2585363,7.2585363 0 0 1 7.25854,-7.25854 7.2585363,7.2585363 0 0 1 7.25853,7.25854 z" /></g><g
     id="g54861"
     transform="matrix(2.0627063,0,0,2.0627063,-401.23613,-299.44071)"
     style="stroke-width:0.443026"><path
       id="ellipse14488-6"
       style="fill:#fefeff;stroke-width:35.4829;stroke-linecap:round;stroke-linejoin:round;paint-order:stroke fill markers"
       d="m 259.50497,223.16059 -6.52105,8.25376 a 51.223782,27.046904 0 0 0 -34.09973,25.49044 51.223782,27.046904 0 0 0 51.22375,27.04692 51.223782,27.046904 0 0 0 51.22375,-27.04692 51.223782,27.046904 0 0 0 -51.22375,-27.04693 51.223782,27.046904 0 0 0 -7.80883,0.32814 z" /><path
       id="path625"
       style="font-weight:normal;font-size:21.1394px;line-height:125%;font-family:'Arial Black';-inkscape-font-specification:'Arial Black, ';text-align:center;letter-spacing:0px;word-spacing:0px;text-anchor:middle;fill:#4d5057;stroke-width:0.484801px"
       d="m 256.6948,241.52226 c -2.45663,0 -4.37326,0.6877 -5.74952,2.06396 -1.37626,1.37626 -2.06395,3.2998 -2.06395,5.77019 0,1.76849 0.3473,3.24111 1.04231,4.41782 0.69501,1.1767 1.59979,2.0371 2.71456,2.58072 1.12166,0.54362 2.53607,0.81545 4.24264,0.81545 1.67904,0 3.07912,-0.31328 4.20078,-0.93947 1.12854,-0.63308 1.98893,-1.51368 2.58072,-2.64222 0.59867,-1.13541 0.89762,-2.58783 0.89762,-4.35632 0,-2.43599 -0.68079,-4.32793 -2.04329,-5.67666 -1.3625,-1.35562 -3.30331,-2.03347 -5.82187,-2.03347 z m -23.60631,0.25787 v 15.13189 h 6.94687 c 0.83264,0 1.76159,-0.13764 2.78691,-0.41289 0.75006,-0.19956 1.45157,-0.59867 2.10529,-1.19735 0.65372,-0.60555 1.16336,-1.35196 1.52808,-2.23965 0.37158,-0.89457 0.55707,-2.15062 0.55707,-3.76773 0,-1.03219 -0.12383,-2.00899 -0.37156,-2.93109 -0.24772,-0.92209 -0.64683,-1.73068 -1.19734,-2.42569 -0.5505,-0.69501 -1.24907,-1.22831 -2.09548,-1.5999 -0.83952,-0.37159 -1.9436,-0.55759 -3.31297,-0.55759 z m 34.00051,0 v 9.02115 c 0,0.74319 0.14455,1.59667 0.43357,2.56005 0.17891,0.59868 0.50947,1.18033 0.99115,1.7446 0.48857,0.56427 1.02533,1.00085 1.61024,1.31051 0.58491,0.30278 1.3106,0.50605 2.17764,0.60927 0.87393,0.10322 1.67906,0.15503 2.41536,0.15503 1.27305,0 2.36382,-0.16873 3.27215,-0.50591 0.65372,-0.24084 1.27631,-0.65723 1.8681,-1.24902 0.59868,-0.59868 1.03578,-1.2938 1.31104,-2.08515 0.28213,-0.79823 0.42323,-1.6448 0.42323,-2.53938 v -9.02115 h -4.66535 v 9.23819 c 0,0.83952 -0.2309,1.48974 -0.69195,1.95079 -0.45417,0.45417 -1.08366,0.68109 -1.88877,0.68109 -0.812,0 -1.44839,-0.23037 -1.90945,-0.69143 -0.45416,-0.46792 -0.68109,-1.11469 -0.68109,-1.94045 v -9.23819 z m 21.03644,0 -5.6875,15.13189 h 4.77903 l 0.73277,-2.49804 h 5.32629 l 0.74311,2.49804 h 4.89273 l -5.68751,-15.13189 z m 12.46901,0 v 15.13189 h 4.68602 v -15.13189 z m -43.90998,3.28248 c 0.98403,0 1.76153,0.33004 2.33267,0.99064 0.57804,0.65373 0.86713,1.69269 0.86713,3.11712 0,1.69281 -0.27528,2.86648 -0.82579,3.5202 -0.5505,0.65373 -1.328,0.9803 -2.33267,0.9803 -0.97715,0 -1.75119,-0.33348 -2.32234,-1.00097 -0.56426,-0.66748 -0.84646,-1.76517 -0.84646,-3.29282 0,-1.54141 0.28565,-2.64601 0.8568,-3.31349 0.57114,-0.66749 1.32792,-1.00098 2.27066,-1.00098 z m -18.92029,0.14418 h 1.16633 c 1.21112,0 2.07842,0.29601 2.6014,0.8878 0.52298,0.5918 0.78444,1.68948 0.78444,3.29283 0,1.21111 -0.11691,2.08826 -0.35088,2.63188 -0.23397,0.53674 -0.5576,0.91564 -0.97048,1.13584 -0.41288,0.21332 -1.108,0.31988 -2.08515,0.31988 h -1.14566 z m 52.85879,0.49558 1.67225,5.43998 h -3.33365 z m -57.37428,16.07602 v 0.52452 h 70.97655 v -0.52452 z m 10.80554,4.06435 c -1.377,0 -2.48816,0.45359 -3.33313,1.36116 -0.84497,0.90309 -1.2671,2.17277 -1.2671,3.80907 0,1.54688 0.41989,2.76764 1.26038,3.66179 0.84051,0.88969 1.91346,1.33429 3.21893,1.33429 1.0551,0 1.92512,-0.25912 2.60914,-0.77773 0.6885,-0.52308 1.1803,-1.32119 1.47536,-2.39417 l -1.92494,-0.6103 c -0.16542,0.71979 -0.43803,1.24754 -0.81804,1.58285 -0.38001,0.3353 -0.8336,0.50281 -1.36116,0.50281 -0.71532,0 -1.297,-0.26361 -1.74408,-0.79117 -0.44708,-0.52754 -0.67024,-1.41278 -0.67024,-2.65565 0,-1.17134 0.22541,-2.01888 0.67696,-2.54196 0.45601,-0.52308 1.04841,-0.78445 1.77715,-0.78445 0.52755,0 0.97492,0.1478 1.34152,0.44287 0.37108,0.29507 0.61447,0.69697 0.73071,1.20664 l 1.96525,-0.46922 c -0.22354,-0.78685 -0.55906,-1.39049 -1.00614,-1.81074 -0.75109,-0.71086 -1.72794,-1.06609 -2.93057,-1.06609 z m 47.75471,0 c -0.52308,0 -0.95696,0.0939 -1.30121,0.28164 -0.33978,0.1833 -0.57418,0.42219 -0.70384,0.71727 -0.12518,0.29506 -0.1881,0.74243 -0.1881,1.34152 v 0.5364 h -1.04593 v 1.48208 h 1.04593 v 5.63996 h 1.88464 v -5.63996 h 1.40818 v -1.48208 h -1.40818 v -0.50281 c 0,-0.36214 0.0579,-0.60604 0.17415,-0.73122 0.12071,-0.12966 0.31743,-0.19431 0.59015,-0.19431 0.27718,0 0.56552,0.036 0.86506,0.10749 l 0.25476,-1.31465 c -0.51413,-0.16095 -1.03912,-0.24133 -1.57561,-0.24133 z m -33.71215,0.16743 v 9.83144 h 1.88464 v -9.83144 z m 3.81578,0 v 9.83144 h 1.88464 v -9.83144 z m 23.66626,0 v 1.74357 h 1.88412 v -1.74357 z m 11.54245,0 v 2.30684 l 0.48989,4.98936 h 1.06608 l 0.48266,-4.98936 v -2.30684 z m -14.13764,0.19482 -1.89136,1.09968 v 1.4149 h -0.86506 v 1.50223 h 0.86506 v 3.10472 c 0,0.66614 0.0203,1.10902 0.0605,1.32809 0.0492,0.30848 0.13631,0.55412 0.26149,0.73742 0.12965,0.17883 0.33086,0.32663 0.60358,0.44287 0.27271,0.11176 0.57902,0.16743 0.9188,0.16743 0.55438,0 1.05067,-0.0939 1.4888,-0.28164 l -0.16123,-1.46192 c -0.33084,0.12071 -0.58322,0.18138 -0.75758,0.18138 -0.12518,0 -0.23253,-0.0315 -0.32194,-0.0941 -0.085,-0.0626 -0.14063,-0.14073 -0.16743,-0.23461 -0.0223,-0.0984 -0.0336,-0.43838 -0.0336,-1.01958 v -2.87011 h 1.28726 v -1.50223 h -1.28726 z m -30.04365,2.35387 c -0.69743,0 -1.33028,0.15401 -1.89807,0.4625 -0.56332,0.30848 -0.99893,0.75533 -1.30741,1.341 -0.30849,0.58567 -0.46303,1.19156 -0.46303,1.81746 0,0.81816 0.15454,1.5134 0.46303,2.08566 0.30848,0.56779 0.75757,0.99943 1.34772,1.2945 0.5946,0.29507 1.21847,0.44235 1.8712,0.44235 1.0551,0 1.92909,-0.35299 2.62206,-1.05937 0.69744,-0.71085 1.04593,-1.60507 1.04593,-2.68252 0,-1.06851 -0.34399,-1.9515 -1.03249,-2.64894 -0.6885,-0.70191 -1.57148,-1.05264 -2.64894,-1.05264 z m 15.50448,0 c -0.94332,0 -1.72345,0.33501 -2.34042,1.00562 -0.61697,0.66614 -0.92553,1.58958 -0.92553,2.76986 0,0.98803 0.23493,1.80584 0.70435,2.45411 0.59462,0.8092 1.5113,1.21388 2.74971,1.21388 0.78238,0 1.43269,-0.17874 1.9513,-0.5364 0.52308,-0.36214 0.90528,-0.88763 1.1467,-1.57613 l -1.87792,-0.31471 c -0.10284,0.35766 -0.25461,0.61677 -0.45579,0.77773 -0.20118,0.16094 -0.44958,0.24133 -0.74466,0.24133 -0.43366,0 -0.79563,-0.15402 -1.08623,-0.46251 -0.29062,-0.31295 -0.44239,-0.74908 -0.45579,-1.30793 h 4.72116 c 0.0268,-1.44405 -0.266,-2.51477 -0.8785,-3.21221 -0.61249,-0.70191 -1.4488,-1.05264 -2.50838,-1.05264 z m 7.96024,0 c -1.05957,0 -1.89985,0.32826 -2.52129,0.98546 -0.62143,0.65273 -0.93224,1.56718 -0.93224,2.74299 0,1.1624 0.30856,2.07234 0.92552,2.72955 0.62143,0.6572 1.45273,0.98547 2.49442,0.98547 0.91651,0 1.64772,-0.21694 2.19315,-0.65061 0.54543,-0.43366 0.91415,-1.07498 1.10639,-1.92443 l -1.85105,-0.31522 c -0.0939,0.49625 -0.25464,0.84751 -0.48265,1.05316 -0.22801,0.20119 -0.52084,0.30127 -0.8785,0.30127 -0.47838,0 -0.86058,-0.17424 -1.1467,-0.52296 -0.28166,-0.34872 -0.42272,-0.94562 -0.42272,-1.79059 0,-0.76003 0.13881,-1.30075 0.416,-1.62264 0.28166,-0.32637 0.65712,-0.48937 1.12654,-0.48937 0.3532,0 0.63928,0.0939 0.85835,0.28163 0.22353,0.18777 0.36683,0.46712 0.42943,0.83819 l 1.85725,-0.33538 c -0.22354,-0.7645 -0.59225,-1.33218 -1.10639,-1.70325 -0.50967,-0.37555 -1.19818,-0.56327 -2.06551,-0.56327 z m 9.17412,0.16071 v 7.12204 h 1.88412 v -7.12204 z m -17.02015,1.28106 c 0.38449,0 0.71051,0.14278 0.97875,0.42891 0.26825,0.28166 0.40931,0.69532 0.42271,1.24075 h -2.81636 c -0.004,-0.51414 0.12708,-0.92105 0.39532,-1.22059 0.26825,-0.29955 0.60827,-0.44907 1.01958,-0.44907 z m -15.61197,0.0935 c 0.49178,0 0.9032,0.18773 1.23404,0.56327 0.3353,0.37554 0.50281,0.91229 0.50281,1.60973 0,0.71532 -0.16751,1.26053 -0.50281,1.63607 -0.33084,0.37555 -0.74226,0.56327 -1.23404,0.56327 -0.49178,0 -0.90544,-0.18772 -1.24075,-0.56327 -0.3353,-0.37554 -0.50281,-0.91626 -0.50281,-1.62264 0,-0.70638 0.16751,-1.24762 0.50281,-1.62316 0.33531,-0.37554 0.74897,-0.56327 1.24075,-0.56327 z m 44.25518,3.86282 v 1.88463 h 1.88464 v -1.88463 z" /></g></g><flowRoot
   xml:space="preserve"
   id="flowRoot848"
   style="fill:black;stroke:none;stroke-opacity:1;stroke-width:1px;stroke-linejoin:miter;stroke-linecap:butt;fill-opacity:1;font-family:'Helvetica Now Display';font-style:normal;font-weight:normal;font-size:42.66666667px;line-height:125%;letter-spacing:0px;word-spacing:0px;-inkscape-font-specification:'Helvetica Now Display';font-stretch:normal;font-variant:normal"><flowRegion
     id="flowRegion850"><rect
       id="rect852"
       width="251.69492"
       height="258.05084"
       x="-298.72882"
       y="-209.74576" /></flowRegion><flowPara
     id="flowPara854" /></flowRoot><flowRoot
   xml:space="preserve"
   id="flowRoot856"
   style="fill:black;stroke:none;stroke-opacity:1;stroke-width:1px;stroke-linejoin:miter;stroke-linecap:butt;fill-opacity:1;font-family:'Helvetica Now Display';font-style:normal;font-weight:normal;font-size:42.66666667px;line-height:125%;letter-spacing:0px;word-spacing:0px;-inkscape-font-specification:'Helvetica Now Display';font-stretch:normal;font-variant:normal"><flowRegion
     id="flowRegion858"><rect
       id="rect860"
       width="1188.5593"
       height="122.0339"
       x="-582.20337"
       y="-291.10168" /></flowRegion><flowPara
     id="flowPara862" /></flowRoot></svg>
