<?xml version="1.0" encoding="UTF-8" standalone="no"?>
<svg
   width="456"
   height="96"
   viewBox="0 0 456 96"
   fill="none"
   version="1.1"
   id="svg96838"
   sodipodi:docname="logo-les-jeunes-ecologistes.svg"
   inkscape:version="1.2.2 (b0a8486541, 2022-12-01)"
   xmlns:inkscape="http://www.inkscape.org/namespaces/inkscape"
   xmlns:sodipodi="http://sodipodi.sourceforge.net/DTD/sodipodi-0.dtd"
   xmlns="http://www.w3.org/2000/svg"
   xmlns:svg="http://www.w3.org/2000/svg">
  <defs
     id="defs96842" />
  <sodipodi:namedview
     id="namedview96840"
     pagecolor="#ffffff"
     bordercolor="#666666"
     borderopacity="1.0"
     inkscape:showpageshadow="2"
     inkscape:pageopacity="0.0"
     inkscape:pagecheckerboard="0"
     inkscape:deskcolor="#d1d1d1"
     showgrid="false"
     inkscape:zoom="1.1400753"
     inkscape:cx="241.65071"
     inkscape:cy="76.310749"
     inkscape:window-width="1855"
     inkscape:window-height="1050"
     inkscape:window-x="65"
     inkscape:window-y="30"
     inkscape:window-maximized="1"
     inkscape:current-layer="svg96838" />
  <path
     style="fill:#f9f9f9;fill-opacity:1;stroke-width:3.77953;opacity:1"
     d="m 275.21653,43.392009 c -0.056,-0.147564 -0.0771,-7.270937 -0.0454,-15.829714 l 0.0568,-15.561414 0.0519,15.707469 0.0519,15.707469 0.48293,0.09302 0.48293,0.09302 -0.48966,0.0292 c -0.26933,0.01606 -0.53582,-0.09151 -0.59212,-0.239072 z"
     id="path102118" />
  <path
     style="fill:#f9f9f9;fill-opacity:1;stroke-width:3.77953;opacity:1"
     d="m 78.088802,86.222947 c -0.385744,-0.791234 -0.947283,-2.360786 -1.247847,-3.487904 -0.474169,-1.778097 -0.546369,-2.489578 -0.545639,-5.376224 5.68e-4,-2.733339 0.08169,-3.614133 0.454213,-4.936719 0.249456,-0.885394 0.520977,-1.851271 0.603399,-2.146408 0.110653,-0.395884 -0.07463,-0.255175 -0.706508,0.536602 -2.516786,3.153763 -6.372765,5.713123 -10.480877,6.956647 -1.693704,0.512686 -4.367628,0.889312 -4.523467,0.637146 -0.05679,-0.09148 0.0081,-1.064791 0.139047,-2.162932 0.577439,-4.766862 2.745069,-9.208783 6.133125,-12.567643 0.86332,-0.855881 1.531294,-1.556142 1.484405,-1.556142 -0.04705,0 -0.552048,0.200254 -1.122592,0.445013 -4.080206,1.750434 -9.78589,1.899061 -14.391453,0.374881 -2.831872,-0.937207 -2.848908,-0.955403 -2.099405,-2.239578 0.892282,-1.528592 4.242048,-4.769709 6.154624,-5.954961 2.048053,-1.26924 4.767649,-2.391191 6.669598,-2.751511 1.546545,-0.292978 1.919147,-0.605857 0.721596,-0.605857 -1.169643,0 -4.375496,-1.012718 -6.463218,-2.041709 -2.3113,-1.13919 -5.023189,-3.231431 -6.520492,-5.030677 -1.793811,-2.155526 -1.794541,-2.051979 0.01866,-2.913174 0.862671,-0.409683 2.533579,-0.996387 3.71312,-1.303782 3.55939,-0.927635 9.045797,-0.715382 11.856982,0.458723 0.383716,0.160244 0.697584,0.199687 0.697584,0.08765 0,-0.112024 -0.08258,-0.203686 -0.183584,-0.203686 -0.358243,0 -3.098606,-2.677371 -4.116305,-4.021797 -2.127879,-2.810852 -3.832453,-6.936397 -4.196943,-10.157615 l -0.151945,-1.3429 1.80241,0.13241 c 4.848692,0.356223 9.568397,2.583706 13.106614,6.185735 l 1.645435,1.675118 -0.637066,-1.745509 C 74.64169,27.712036 74.36668,23.479983 75.158611,19.721069 c 0.411541,-1.953495 1.40036,-4.615104 1.766877,-4.755732 0.830222,-0.318598 5.078029,3.636644 6.895285,6.420442 1.525372,2.336594 3.057314,6.224909 3.057314,7.759862 0,0.835527 0.321819,0.07163 0.560404,-1.330156 0.336826,-1.979049 1.536729,-5.06049 2.789687,-7.163966 1.102717,-1.851304 4.326254,-5.319438 5.604036,-6.029239 l 0.690526,-0.383562 0.649072,1.285781 c 2.117009,4.19386 2.619165,10.497103 1.193819,14.985588 -0.287908,0.906705 -0.493476,1.678599 -0.456727,1.715307 0.03651,0.03675 0.338043,-0.324795 0.669677,-0.803361 0.796231,-1.148957 2.995819,-3.191388 4.637769,-4.306411 2.64099,-1.793446 6.19348,-3.132695 9.36494,-3.530446 l 1.12681,-0.141334 v 1.039684 c -0.008,1.499201 -0.69913,4.631052 -1.46964,6.622197 -0.96586,2.495808 -2.66273,5.110576 -4.57815,7.054498 -0.92205,0.935796 -1.6765,1.729828 -1.6765,1.764509 0,0.03472 0.5071,-0.159652 1.12689,-0.431879 3.00045,-1.317866 7.97869,-1.78823 11.63892,-1.099691 2.21655,0.416944 5.26397,1.524909 5.26397,1.913801 0,1.020554 -3.57018,4.935729 -5.98443,6.562717 -1.98048,1.334715 -4.71192,2.55386 -6.95386,3.103807 l -1.95281,0.47902 1.48927,0.246365 c 2.76519,0.457425 6.21068,1.853859 8.55687,3.468053 1.49835,1.03093 3.53067,2.986875 4.58293,4.410874 l 0.95174,1.287842 -1.68632,0.792515 c -2.93166,1.377759 -5.01443,1.78638 -8.98414,1.762602 -3.32957,-0.01996 -4.79978,-0.247014 -6.86844,-1.060832 -0.23615,-0.09288 0.41495,0.627387 1.44677,1.600598 3.05553,2.881909 5.15079,6.430891 6.18577,10.477795 0.22901,0.895469 0.41641,2.047323 0.41641,2.559677 v 0.931545 h -1.36759 c -2.8369,0 -7.38892,-1.590766 -10.46311,-3.656423 -0.75331,-0.50618 -2.08877,-1.653296 -2.96775,-2.549138 -0.878895,-0.895843 -1.518557,-1.435633 -1.42137,-1.19953 1.26585,3.075162 1.66044,5.064619 1.66044,8.370968 0,1.579984 -0.13872,3.239486 -0.35897,4.292806 -0.421033,2.014095 -1.541678,5.044047 -1.865606,5.044047 -0.457944,0 -2.901313,-1.932225 -4.38085,-3.464484 -1.736213,-1.798094 -2.803965,-3.376651 -3.964604,-5.861539 -0.712998,-1.526402 -0.959046,-2.289656 -1.595301,-4.94755 -0.131096,-0.547707 -0.216438,-0.339251 -0.571193,1.39516 -0.792904,3.876236 -2.599857,7.422703 -5.228757,10.26216 -1.362799,1.471928 -3.269616,3.045528 -3.690486,3.045528 -0.113006,0 -0.521059,-0.647369 -0.906884,-1.438602 z M 91.220078,68.898428 c 5.713147,-1.093095 10.437072,-4.780621 12.946312,-10.10598 1.12851,-2.395011 1.57575,-4.134136 1.73848,-6.76117 0.3305,-5.333294 -1.69248,-10.400614 -5.66901,-14.199709 -4.644423,-4.437288 -10.902074,-6.062662 -17.169622,-4.459687 -6.125744,1.566697 -11.171485,6.534478 -12.971948,12.771434 -0.644529,2.232845 -0.704642,7.143897 -0.113817,9.296234 0.924487,3.367614 2.132827,5.555695 4.415815,7.995949 2.582172,2.760044 5.880263,4.664581 9.369805,5.410726 1.938698,0.414543 5.432378,0.43901 7.453985,0.05216 z"
     id="path102121" />
  <path
     style="fill:#f9f9f9;fill-opacity:1;stroke-width:3.77953;opacity:1"
     d="m 141.71895,78.940775 c -3.77534,-0.58608 -6.74391,-2.592135 -8.34521,-5.639358 -1.16519,-2.217358 -1.48652,-3.904848 -1.35258,-7.103886 0.16476,-3.9357 1.02938,-6.179707 3.31894,-8.613869 1.56707,-1.666008 3.85882,-2.977473 6.19088,-3.542703 1.97156,-0.47786 5.55366,-0.480067 7.35412,-0.0049 3.06722,0.810086 5.65864,2.910026 6.92157,5.608806 0.81489,1.741356 1.36621,4.802232 1.16097,6.445136 l -0.14749,1.18036 -0.78941,0.01785 c -0.43426,0.0098 -4.12182,0.179454 -8.19457,0.376991 l -7.40506,0.359168 0.0422,0.924747 c 0.0787,1.738111 1.23746,3.010474 2.913,3.19933 1.3903,0.156707 2.3349,-0.240897 3.45109,-1.452563 0.97884,-1.06265 0.98281,-1.064451 2.35097,-1.064451 0.7538,0 2.70077,-0.06376 4.32674,-0.141772 l 2.95615,-0.14178 -0.15422,0.732037 c -0.75972,3.605575 -4.41873,7.158451 -8.69558,8.443412 -1.18433,0.355817 -4.69772,0.604105 -5.90225,0.417106 z m 6.06352,-14.799182 c 0.33001,-0.06741 0.48293,-0.252928 0.48293,-0.585674 0,-0.86534 -0.91857,-2.345931 -1.71374,-2.76217 -0.83882,-0.439099 -2.63766,-0.520993 -3.58462,-0.163205 -1.20226,0.454261 -2.22036,1.727906 -2.53001,3.165072 l -0.153,0.710369 3.50779,-0.132873 c 1.92921,-0.07309 3.72505,-0.177272 3.99065,-0.231519 z m 21.62502,13.526949 c -0.23607,-0.0546 -0.9605,-0.206566 -1.60982,-0.337654 -3.90465,-0.78837 -6.9872,-3.858364 -8.04513,-8.012506 -0.41633,-1.634727 -0.4212,-5.587235 -0.009,-7.335122 1.41067,-5.981789 6.23932,-9.575957 12.88353,-9.589716 3.71117,-0.0073 6.11016,0.903947 8.37101,3.18107 1.37764,1.387526 2.30878,3.002239 2.7956,4.84775 0.3666,1.389506 0.28029,1.474207 -1.50776,1.479862 -0.7083,0.0024 -2.65016,0.06644 -4.31514,0.142575 l -3.02738,0.138494 -0.13069,-0.520847 c -0.22439,-0.893871 -1.29247,-1.726218 -2.37117,-1.847799 -1.29093,-0.145512 -1.91355,0.03569 -2.80153,0.815344 -1.05754,0.928495 -1.51588,2.285324 -1.51832,4.494334 0,2.208873 0.45503,3.560729 1.52188,4.497442 0.63034,0.553443 0.92011,0.653923 1.88605,0.653923 1.43703,0 2.43315,-0.615097 3.02925,-1.870627 l 0.42931,-0.904133 1.28784,-0.02061 c 0.70829,-0.01136 2.73663,-0.101031 4.5074,-0.199345 1.77077,-0.09832 3.25623,-0.144441 3.30109,-0.102492 0.0446,0.04194 -0.16955,0.881256 -0.47636,1.865135 -1.62637,5.216401 -5.94524,8.397852 -11.72758,8.638984 -1.12406,0.04689 -2.237,0.04056 -2.47307,-0.01412 z m 26.83002,-1.385109 c -2.80592,-0.512313 -4.92877,-1.621982 -6.71398,-3.509556 -1.94291,-2.054356 -3.05545,-5.113139 -3.04839,-8.381457 0.0138,-6.498386 3.82418,-11.430481 9.98294,-12.922333 1.97399,-0.478152 5.5664,-0.487092 7.34009,-0.01825 5.15639,1.362938 8.20933,5.200242 8.57576,10.779033 0.43458,6.615747 -3.45433,12.124779 -9.69722,13.736978 -1.59141,0.410981 -5.00145,0.578113 -6.4392,0.315604 z m 4.67906,-7.642646 c 1.73662,-0.877411 2.5395,-2.253434 2.6779,-4.589655 0.11795,-1.99039 -0.19462,-3.206891 -1.08439,-4.220274 -1.20412,-1.371423 -2.89036,-1.724345 -4.55543,-0.953449 -1.86082,0.861544 -2.68301,2.443426 -2.68301,5.162219 0,2.212045 0.72387,3.729296 2.1265,4.457269 1.12057,0.581586 2.53748,0.639532 3.51843,0.14389 z m 15.17519,-5.634036 V 50.574496 l 3.59516,-0.134982 c 1.9774,-0.07423 3.9092,-0.175033 4.29283,-0.223991 l 0.69759,-0.08902 v 9.0264 9.0264 l 1.34154,-0.12627 c 0.73783,-0.06944 2.93515,-0.180443 4.88301,-0.246665 1.94787,-0.0662 3.95211,-0.171447 4.45378,-0.233839 l 0.91224,-0.11346 v 3.430306 3.430314 l -1.34146,0.121386 c -0.73783,0.06676 -4.67379,0.267181 -8.74662,0.44537 -4.07282,0.17818 -8.00879,0.375408 -8.74661,0.438271 l -1.34146,0.114296 z m 31.18571,10.60804 c -4.36049,-0.993046 -7.65168,-4.218684 -8.66297,-8.490464 -0.35808,-1.512611 -0.35987,-5.129834 0,-6.653843 1.0121,-4.325159 4.07071,-7.651724 8.42406,-9.162145 2.10508,-0.730358 6.20265,-0.928738 8.41855,-0.40759 4.21868,0.992161 7.41034,4.160656 8.39413,8.33335 0.45965,1.949447 0.41292,5.109595 -0.10554,7.136596 -1.10183,4.308188 -4.23159,7.516888 -8.69356,8.912753 -1.93683,0.605931 -5.83581,0.77217 -7.7715,0.331343 z m 5.72848,-7.629918 c 1.61858,-0.825711 2.44767,-2.535031 2.44767,-5.046026 0,-1.919552 -0.32076,-2.842474 -1.32029,-3.798121 -1.35412,-1.294826 -2.97384,-1.528398 -4.63647,-0.668615 -2.09543,1.083604 -3.04409,4.156016 -2.18085,7.062976 0.30494,1.026865 1.17564,2.089888 2.15229,2.62765 0.71089,0.391463 2.6087,0.296037 3.53765,-0.177864 z M 83.766093,68.846225 c -5.596248,-1.196609 -10.77917,-5.52477 -12.898287,-10.771155 -1.041387,-2.578303 -1.263099,-3.826767 -1.264072,-7.116996 0,-3.677166 0.396533,-5.390997 1.938211,-8.356325 4.174471,-8.029234 13.551172,-11.767324 22.146813,-8.828977 4.824192,1.649134 9.178842,5.830339 11.005672,10.56738 1.32264,3.429746 1.60211,7.670893 0.73319,11.125366 -0.47847,1.901973 -1.96482,4.987706 -3.15344,6.546533 -2.744099,3.598833 -6.676984,6.048895 -11.054102,6.886377 -2.021607,0.386807 -5.515287,0.36234 -7.453985,-0.05216 z m 7.94162,-6.689562 c 4.911644,-1.78668 8.090563,-6.633847 7.766636,-11.84251 -0.327578,-5.267818 -3.82718,-9.462895 -8.981466,-10.766304 -6.18975,-1.565252 -12.609973,2.291944 -14.241536,8.556198 -0.405295,1.555802 -0.406674,4.332347 0,5.849266 1.072376,4.029746 4.352295,7.384307 8.293048,8.481783 1.716825,0.478136 5.48949,0.331561 7.16632,-0.278433 z M 167.31766,48.604647 c -2.77508,-0.507268 -5.16994,-1.850338 -6.47887,-3.633465 -0.93447,-1.273004 -1.76347,-3.47043 -1.96904,-5.21929 l -0.14083,-1.19884 2.01236,-0.125466 c 6.57727,-0.410057 6.62717,-0.410349 6.62717,-0.03805 0,0.560509 0.82129,2.016171 1.27437,2.25865 0.22796,0.121994 0.84247,0.221817 1.36556,0.221817 1.18741,0 1.98559,-0.583613 2.28818,-1.673228 0.13766,-0.495578 0.2213,-4.811626 0.22203,-11.456433 V 17.079048 l 0.59026,-0.111748 c 0.32458,-0.06149 2.25638,-0.175268 4.29275,-0.252904 l 3.70257,-0.141155 v 11.343476 c 0,8.940157 -0.0681,11.646497 -0.30689,12.773648 -0.83436,3.936868 -3.30588,6.535257 -7.22992,7.601184 -1.42948,0.388307 -4.88771,0.561629 -6.24726,0.313114 z m 18.50979,-16.524248 c 0,-8.623669 0.0722,-15.680066 0.16103,-15.680893 0.0885,-8.11e-4 4.07274,-0.192726 8.85386,-0.42646 4.78111,-0.233726 9.24836,-0.426225 9.92712,-0.427782 l 1.23422,-0.0024 v 3.401434 3.401426 l -3.70257,0.14217 c -2.03637,0.0782 -4.64426,0.203345 -5.79533,0.278133 l -2.09267,0.135971 v 2.53233 c 0,1.392783 0.0722,2.569679 0.16095,2.615328 0.0885,0.04567 2.40678,-0.02109 5.15161,-0.148319 l 4.99066,-0.231308 -1.7e-4,3.245781 -2.4e-4,3.245782 -3.27326,0.140401 c -1.80031,0.07723 -4.11842,0.198632 -5.15137,0.269802 l -1.8781,0.129417 v 2.897671 2.897671 l 1.66345,-0.129303 c 0.91491,-0.07115 3.30547,-0.18523 5.31239,-0.253585 2.00684,-0.06839 3.8662,-0.169355 4.1318,-0.224454 l 0.48293,-0.100188 v 3.425179 3.425179 l -0.91223,0.113598 c -0.50167,0.06246 -4.48599,0.261778 -8.85386,0.442879 -4.36795,0.181109 -8.49708,0.382175 -9.17592,0.446814 l -1.23414,0.117533 V 32.08078 Z m -51.51365,10.93599 v -3.43424 l 0.80491,-0.0016 c 0.44269,-8.11e-4 4.7167,-0.192734 9.49782,-0.42646 4.78112,-0.233734 8.95859,-0.426233 9.28325,-0.427782 l 0.59025,-0.0024 v 3.434241 3.43424 l -0.80491,0.0041 c -0.44269,0.0024 -4.57181,0.194178 -9.17592,0.426777 -4.60402,0.23259 -8.78141,0.424018 -9.28316,0.425397 l -0.91224,0.0024 z m 84.18231,2.799244 c -4.21236,-1.140334 -6.83558,-3.810745 -8.12642,-8.272565 -0.32539,-1.124953 -0.38242,-2.609211 -0.4504,-11.734501 l -0.0779,-10.446651 1.13971,-0.11892 c 0.62692,-0.06539 2.56448,-0.179713 4.30573,-0.254015 l 3.16594,-0.135087 v 9.348599 c 0,9.772918 0.0889,10.939496 0.93008,12.205863 1.30634,1.96671 4.97857,2.260087 6.92279,0.553062 0.41689,-0.366055 0.96967,-1.061051 1.22829,-1.544436 0.46192,-0.863231 0.47141,-1.057328 0.53201,-10.89886 l 0.0617,-10.019989 1.11886,-0.114855 c 0.61532,-0.0632 2.54347,-0.174343 4.2848,-0.247055 l 3.16594,-0.132191 v 10.05239 c -0.008,11.382001 -0.0552,11.880175 -1.52692,14.881806 -1.60893,3.28176 -4.67776,5.741022 -8.45018,6.771627 -0.73685,0.201301 -2.43575,0.389914 -3.97077,0.440844 -2.19927,0.07293 -2.96548,0.01257 -4.24951,-0.335066 z m 22.92316,-16.313456 v -15.63363 l 2.73664,-0.134641 c 1.50517,-0.07407 3.46115,-0.185717 4.34653,-0.248134 l 1.60974,-0.113476 5.79533,8.651138 5.79524,8.651145 0.056,-8.850418 0.056,-8.85041 0.48058,-0.09969 c 0.2643,-0.05484 2.19497,-0.161793 4.2904,-0.237685 l 3.8099,-0.138 v 15.56083 15.560821 l -1.01956,0.119414 c -0.56073,0.06571 -2.51971,0.180517 -4.35327,0.255183 l -3.33371,0.135777 -5.68118,-8.384085 c -3.12465,-4.611243 -5.75363,-8.387355 -5.84214,-8.391363 -0.0886,-0.0041 -0.16103,3.894245 -0.16103,8.662787 v 8.670079 l -3.59516,0.134974 c -1.9774,0.07423 -3.9092,0.175033 -4.29283,0.223999 l -0.69759,0.08902 z m 33.91318,-1.684943 V 12.188805 l 8.42463,-0.37244 c 4.63356,-0.204838 9.17317,-0.430037 10.08808,-0.500437 l 1.66345,-0.128005 v 3.434305 3.434306 l -1.8781,0.134284 c -1.03295,0.07382 -3.64084,0.199013 -5.79525,0.278125 l -3.91723,0.143849 v 2.679269 2.679278 l 2.95129,-0.139663 c 1.62321,-0.07682 3.89305,-0.198875 5.04404,-0.271254 l 2.09275,-0.131591 v 3.222881 3.22288 l -0.91224,0.123893 c -0.50167,0.06814 -2.77151,0.188994 -5.04404,0.268552 l -4.1318,0.144652 v 2.899797 2.899796 l 3.48792,-0.142096 c 1.91834,-0.07812 4.52623,-0.202737 5.79525,-0.276868 l 2.30741,-0.134787 v 3.464783 3.4648 l -0.69759,0.0024 c -0.38363,0.0016 -4.60937,0.193448 -9.39049,0.426606 -4.78112,0.233166 -9.00686,0.425138 -9.39049,0.426606 l -0.69759,0.0024 z m 32.3599,14.134048 c -4.65951,-0.853943 -7.64024,-3.318445 -8.66394,-7.163423 -0.56479,-2.121373 -0.70967,-2.003427 2.65112,-2.159323 1.62321,-0.07528 3.69982,-0.193578 4.61474,-0.262865 1.60244,-0.121354 1.66344,-0.108893 1.66344,0.339763 0,1.694077 1.90649,3.007001 3.75628,2.586788 2.2812,-0.518252 2.51192,-3.491944 0.35662,-4.59724 -0.31419,-0.161137 -2.35511,-0.88679 -4.53531,-1.612548 -4.3566,-1.450284 -5.27102,-1.900562 -6.65492,-3.277031 -3.1356,-3.118685 -2.95039,-9.047678 0.3851,-12.330972 2.22798,-2.193135 5.55439,-3.319921 9.80455,-3.321243 2.80534,-8.11e-4 4.38117,0.307167 6.28207,1.227964 2.42446,1.174479 4.43812,3.993971 4.70599,6.589455 l 0.12031,1.166221 -3.62243,0.140961 c -1.99232,0.07755 -4.08117,0.195435 -4.64198,0.26203 -0.86243,0.102418 -1.01949,0.06506 -1.01949,-0.242252 0,-0.684548 -0.70172,-1.842234 -1.30617,-2.154772 -0.96822,-0.50068 -2.20665,-0.399283 -2.97019,0.243169 -0.56454,0.475013 -0.66043,0.701786 -0.66043,1.562048 0,1.835095 0.36668,2.093596 5.3889,3.799176 5.64451,1.916924 7.32126,3.012048 8.60521,5.620139 1.22886,2.496189 1.06589,6.071813 -0.39004,8.556182 -1.19877,2.045457 -3.89062,3.944023 -6.64178,4.68431 -1.50574,0.40519 -5.7821,0.608405 -7.22765,0.343463 z"
     id="path102124" />
  <path
     style="fill:#f9f9f9;fill-opacity:1;stroke-width:3.77953;opacity:1"
     d="m 276.84168,84.427919 c -1.98559,-0.519833 -3.62015,-1.483252 -4.8925,-2.883612 -0.94168,-1.036455 -2.01146,-3.019414 -2.28688,-4.239143 l -0.13337,-0.590266 h 1.59636 c 0.878,0 1.73102,-0.05168 1.89562,-0.114847 0.20046,-0.0769 0.46825,0.245757 0.81083,0.977291 0.61046,1.303336 2.01593,2.658721 3.38498,3.264302 1.41342,0.62523 4.29202,0.764633 5.9338,0.287357 1.60528,-0.466665 2.60197,-1.105523 3.78573,-2.426593 1.60422,-1.790176 1.77207,-2.484353 1.85611,-7.675468 l 0.073,-4.507445 -0.66408,1.347135 c -0.80823,1.639684 -2.53414,3.455957 -3.98026,4.188774 -2.00489,1.015962 -3.36631,1.285253 -5.99002,1.184822 -2.21801,-0.0849 -2.51857,-0.14999 -4.04906,-0.876828 -3.76576,-1.788351 -5.91814,-5.72478 -5.92885,-10.843339 -0.008,-3.988276 1.24493,-7.348653 3.62445,-9.718167 2.4514,-2.441066 4.84942,-3.313163 8.71684,-3.170004 2.00757,0.07431 2.31284,0.145301 3.81217,0.886327 1.82943,0.904125 3.04418,2.112773 3.89938,3.879699 l 0.53323,1.101727 0.008,-3.05862 0.008,-3.058621 h 0.61249 c 0.33683,0 1.20607,-0.06206 1.93172,-0.137903 l 1.31932,-0.137894 v 13.499245 c 0,14.791231 0.0162,14.53621 -1.30788,17.226383 -0.81108,1.647609 -2.81978,3.736662 -4.41809,4.594863 -2.65843,1.427456 -6.91499,1.847247 -10.1481,1.000825 z m 5.95165,-14.978206 c 3.55177,-1.105409 5.75923,-4.11912 6.00536,-8.198417 0.18877,-3.130018 -0.54702,-5.328182 -2.41068,-7.201584 -1.59473,-1.603096 -3.00434,-2.083301 -5.79686,-1.974806 -2.63085,0.102208 -4.24846,0.743362 -5.75144,2.279621 -1.91177,1.954006 -2.62379,4.160688 -2.4686,7.650345 0.0787,1.769408 0.20362,2.401509 0.6812,3.447934 0.62481,1.369103 1.97885,2.923939 3.03135,3.481016 1.85214,0.980301 4.55089,1.1878 6.70967,0.515891 z m 16.5788,-9.31963 V 48.006772 l 0.67073,-0.134147 c 0.36895,-0.07374 1.23828,-0.134146 1.9318,-0.134146 h 1.26099 v 12.127165 12.127172 h -1.59222 c -0.87573,0 -1.74505,0.05865 -1.9318,0.130285 -0.30713,0.117857 -0.3395,-1.026338 -0.3395,-11.993018 z m 16.52728,11.188254 c -1.63026,-0.269315 -3.65284,-1.261282 -4.6935,-2.301955 -0.96951,-0.969495 -1.85044,-2.554201 -2.14256,-3.854089 -0.18724,-0.833247 -0.17628,-0.857016 0.45129,-0.982531 0.35378,-0.07074 1.18798,-0.12863 1.85384,-0.12863 h 1.21061 l 0.36968,1.040884 c 0.47677,1.342502 1.04553,2.050429 2.18248,2.716716 2.77833,1.628229 6.88344,0.921315 8.06168,-1.388248 0.86584,-1.697087 0.46695,-3.532879 -0.9846,-4.531546 -0.94395,-0.64951 -1.97999,-0.952167 -6.52357,-1.905803 -4.52177,-0.949068 -6.15463,-2.269188 -6.55676,-5.300949 -0.18334,-1.381864 0.33545,-3.446871 1.17111,-4.66145 2.13437,-3.102103 8.05543,-4.290283 12.11601,-2.43129 2.25208,1.031003 4.14194,3.431718 4.55275,5.783336 l 0.14067,0.804895 h -1.85514 c -1.57835,0 -1.87275,-0.05606 -1.97383,-0.37562 -0.58344,-1.844959 -1.70425,-3.203719 -3.13414,-3.799379 -0.93243,-0.388461 -3.3234,-0.437209 -4.56313,-0.09303 -1.75325,0.486735 -3.13657,2.630953 -2.81232,4.35924 0.19323,1.029883 1.21961,2.162924 2.33458,2.577175 0.49623,0.184362 2.33296,0.628904 4.08167,0.987877 3.7381,0.767367 5.11169,1.243572 6.21725,2.155429 1.15301,0.951015 1.70587,2.156807 1.82496,3.980407 0.13142,2.011604 -0.32312,3.379157 -1.59198,4.790493 -2.04042,2.269464 -5.68613,3.227245 -9.73705,2.558071 z m 21.80544,-1.594968 c -1.35014,-0.494678 -2.28071,-1.346364 -2.88938,-2.644322 l -0.5643,-1.203472 -0.0633,-8.132318 -0.0633,-8.13231 -1.81466,0.113209 -1.81466,0.113216 v -1.674104 -1.674096 l 1.82447,-0.151978 1.8244,-0.151977 v -2.950394 -2.950401 l 0.99587,-0.136499 c 0.54767,-0.07504 1.41699,-0.136491 1.93172,-0.136491 h 0.93593 v 3.033829 3.03383 l 3.11232,-0.15416 3.11223,-0.154152 v 1.735085 1.735094 h -1.14749 c -0.63123,0 -2.03175,0.06279 -3.11232,0.13946 l -1.96474,0.13946 0.0162,7.211967 c 0.0187,8.060053 0.0938,8.624667 1.25491,9.407196 0.63698,0.429242 0.99044,0.487773 2.94577,0.487773 h 2.22198 v 1.717116 1.717125 l -2.95128,-0.01517 c -1.99354,-0.01022 -3.22362,-0.114896 -3.79035,-0.322565 z m 18.97625,-0.413034 c -4.12523,-0.937127 -6.976,-3.748661 -8.0444,-7.933646 -0.42047,-1.646887 -0.42249,-5.584939 0,-7.360757 0.98501,-4.1774 4.04832,-7.443982 8.22847,-8.774356 1.62443,-0.516962 5.25553,-0.626187 6.90283,-0.207637 5.03568,1.279486 7.89165,5.012798 7.92929,10.365252 0.008,1.014073 -0.0833,1.81728 -0.21384,1.897917 -0.12436,0.07691 -4.06033,0.320772 -8.74653,0.541964 -4.6862,0.221185 -9.00191,0.429592 -9.59038,0.46312 l -1.06995,0.06101 0.0698,0.95207 c 0.20817,2.841785 1.72916,5.243116 4.03608,6.371768 2.45237,1.19983 6.29659,0.819221 8.4836,-0.839957 1.04504,-0.792823 2.29029,-2.517175 2.47128,-3.422161 0.0665,-0.331261 0.18042,-0.637649 0.25376,-0.680864 0.073,-0.04324 1.03676,-0.148846 2.1411,-0.23474 l 2.00789,-0.156164 -0.14935,0.722149 c -0.47408,2.292552 -2.25516,4.855044 -4.3673,6.283367 -2.80388,1.896051 -7.05266,2.698147 -10.33842,1.951702 z m 3.97077,-13.206494 c 3.18744,-0.126026 6.11958,-0.279228 6.51587,-0.340444 l 0.72054,-0.11131 -0.14213,-1.220144 c -0.22657,-1.945017 -0.72005,-3.165753 -1.73702,-4.296887 -1.25231,-1.392848 -2.68009,-2.009097 -4.94758,-2.135431 -4.92503,-0.274418 -8.25817,2.607661 -8.96841,7.754962 l -0.11389,0.82567 1.43873,-0.123632 c 0.7912,-0.06798 4.04654,-0.22675 7.23389,-0.352784 z m 21.81015,11.91488 c -1.61193,-0.453052 -3.56937,-1.539147 -4.32487,-2.399644 C 377.29313,64.6578 376.472,63.0068 376.29856,61.922466 l -0.14011,-0.8763 h 0.85602 c 0.47085,0 1.2992,-0.06076 1.84087,-0.134982 0.95069,-0.130309 0.98995,-0.113573 1.13362,0.482939 0.22407,0.930425 0.84353,2.06474 1.40847,2.579122 2.03929,1.85669 6.18359,2.087471 8.05049,0.448314 1.01502,-0.891153 1.36094,-1.652517 1.36094,-2.995011 0,-2.36657 -1.21394,-3.18678 -6.2738,-4.23903 -3.97685,-0.827025 -4.98928,-1.159836 -6.19916,-2.037831 -1.3198,-0.957765 -1.9275,-2.266317 -1.94559,-4.189439 -0.0268,-2.810406 1.19073,-4.885059 3.61763,-6.166435 1.77345,-0.93634 3.26021,-1.207496 6.00147,-1.094548 2.73525,0.112698 4.13537,0.627875 5.74924,2.115565 1.04074,0.959289 2.15409,2.978981 2.39162,4.338349 l 0.14058,0.804895 h -0.85245 c -0.46889,0 -1.29563,0.06076 -1.83729,0.13499 -0.95069,0.130301 -0.98995,0.113573 -1.13362,-0.482946 -0.46168,-1.91699 -2.00222,-3.528718 -3.78062,-3.955364 -1.57964,-0.378938 -3.60165,-0.158038 -4.7584,0.519817 -2.20551,1.292546 -2.65713,4.131175 -0.90234,5.671904 0.89788,0.788329 2.03029,1.169571 5.53038,1.861874 4.73382,0.936315 6.46703,1.848447 7.40482,3.896954 0.73685,1.609368 0.66676,4.167852 -0.15803,5.769667 -0.67949,1.319869 -2.32753,2.692931 -3.99389,3.327603 -1.65598,0.630722 -5.62115,0.801334 -7.34739,0.316148 z M 84.541394,62.435096 c -3.940754,-1.097476 -7.220591,-4.452037 -8.293049,-8.481783 -0.403672,-1.516919 -0.402293,-4.293464 0,-5.849266 1.631645,-6.264254 8.051787,-10.12145 14.241537,-8.556198 8.551671,2.162527 11.829318,12.108872 6.281177,19.060902 -1.066049,1.335842 -3.315289,2.910943 -5.066266,3.547912 -1.676912,0.609994 -5.449495,0.756569 -7.166401,0.278433 z M 134.3138,24.986612 v -7.083126 l 0.69758,-0.0032 c 0.38372,-0.0016 0.91492,-0.06117 1.18052,-0.132354 l 0.48293,-0.129425 v 7.21548 7.21548 h -1.18052 -1.18051 z m 8.65202,6.110144 c -1.83218,-0.913033 -2.64204,-2.467277 -2.64204,-5.070428 0,-1.197648 0.11487,-1.653685 0.70342,-2.79174 0.57323,-1.108484 0.91516,-1.487049 1.8476,-2.045286 1.81417,-1.086192 4.03429,-1.194646 5.80993,-0.28382 1.55741,0.798867 2.37101,2.222996 2.37101,4.150061 v 1.155926 l -1.64219,0.138811 c -0.90316,0.07634 -2.19294,0.138819 -2.86611,0.138819 -0.67317,0 -1.8222,0.06255 -2.55345,0.138949 l -1.32938,0.138957 0.14553,0.662798 c 0.31566,1.437061 1.27203,2.185071 2.75132,2.151786 1.19966,-0.02701 2.22036,-0.603026 2.64448,-1.492395 0.34412,-0.721499 0.38777,-0.741537 1.61623,-0.741537 1.2089,0 1.25636,0.02052 1.11845,0.482939 -0.95061,3.186382 -4.89388,4.80142 -7.9748,3.26616 z m 5.7194,-6.038365 c 0.23242,-0.210363 -0.5768,-1.894129 -1.09437,-2.277163 -0.77367,-0.572548 -2.59653,-0.575899 -3.35958,-0.0065 -0.73474,0.548511 -1.27956,1.322165 -1.45747,2.069348 l -0.14497,0.609013 2.97928,-0.153235 c 1.63862,-0.08428 3.02332,-0.193083 3.07711,-0.241782 z m 7.95119,5.595947 c -1.01624,-0.440186 -1.87275,-1.296935 -2.15668,-2.157367 -0.31752,-0.962039 -0.14318,-1.149314 1.07011,-1.149314 0.95612,0 1.0555,0.05078 1.31217,0.670327 0.29108,0.702727 1.26854,1.261435 2.2069,1.261435 0.79461,0 1.64568,-0.782537 1.64568,-1.513114 0,-0.813324 -0.57193,-1.177667 -2.47818,-1.578654 -2.75237,-0.578981 -3.39657,-0.974914 -3.75554,-2.308323 -0.50751,-1.884637 0.73279,-3.592756 2.94171,-4.051325 2.60391,-0.540585 4.80399,0.572402 5.42394,2.743909 l 0.19916,0.697584 h -0.82608 c -0.4543,0 -0.97398,0.05679 -1.1548,0.126156 -0.23031,0.08838 -0.4229,-0.09927 -0.64323,-0.626642 -0.17304,-0.414048 -0.50954,-0.85717 -0.74788,-0.984721 -1.14742,-0.614059 -3.03728,0.09874 -3.03728,1.145558 0,0.764884 0.64031,1.162707 2.48117,1.541556 2.97319,0.611868 3.95803,1.423829 3.95803,3.263134 0,1.89223 -1.81222,3.268407 -4.28463,3.253602 -0.77182,-0.0049 -1.74141,-0.154833 -2.15457,-0.333801 z"
     id="path102127" />
</svg>
