<?xml version="1.0" encoding="UTF-8" standalone="no"?>
<svg
   width="456"
   height="96"
   viewBox="0 0 456 96"
   fill="none"
   version="1.1"
   id="svg96707"
   sodipodi:docname="logo-les-ecologistes.svg"
   inkscape:version="1.2.2 (b0a8486541, 2022-12-01)"
   xmlns:inkscape="http://www.inkscape.org/namespaces/inkscape"
   xmlns:sodipodi="http://sodipodi.sourceforge.net/DTD/sodipodi-0.dtd"
   xmlns="http://www.w3.org/2000/svg"
   xmlns:svg="http://www.w3.org/2000/svg">
  <defs
     id="defs96711">
    <filter
       style="color-interpolation-filters:sRGB;"
       inkscape:label="Greyscale"
       id="filter98389"
       x="0"
       y="0"
       width="1"
       height="1">
      <feColorMatrix
         values="-0.515038 0.268015 -0.325132 0.900918 0 -0.515038 0.268015 -0.325132 0.900918 0 -0.515038 0.268015 -0.325132 0.900918 0 0 0 0 1 0 "
         id="feColorMatrix98387" />
    </filter>
    <filter
       style="color-interpolation-filters:sRGB;"
       inkscape:label="Greyscale"
       id="filter98393"
       x="0"
       y="0"
       width="1"
       height="1">
      <feColorMatrix
         values="-0.515038 0.268015 -0.325132 0.900918 0 -0.515038 0.268015 -0.325132 0.900918 0 -0.515038 0.268015 -0.325132 0.900918 0 0 0 0 1 0 "
         id="feColorMatrix98391" />
    </filter>
    <filter
       style="color-interpolation-filters:sRGB;"
       inkscape:label="Greyscale"
       id="filter98397"
       x="0"
       y="0"
       width="1"
       height="1">
      <feColorMatrix
         values="-0.515038 0.268015 -0.325132 0.900918 0 -0.515038 0.268015 -0.325132 0.900918 0 -0.515038 0.268015 -0.325132 0.900918 0 0 0 0 1 0 "
         id="feColorMatrix98395" />
    </filter>
    <filter
       style="color-interpolation-filters:sRGB;"
       inkscape:label="Greyscale"
       id="filter98401"
       x="0"
       y="0"
       width="1"
       height="1">
      <feColorMatrix
         values="-0.515038 0.268015 -0.325132 0.900918 0 -0.515038 0.268015 -0.325132 0.900918 0 -0.515038 0.268015 -0.325132 0.900918 0 0 0 0 1 0 "
         id="feColorMatrix98399" />
    </filter>
  </defs>
  <sodipodi:namedview
     id="namedview96709"
     pagecolor="#ffffff"
     bordercolor="#666666"
     borderopacity="1.0"
     inkscape:showpageshadow="2"
     inkscape:pageopacity="0.0"
     inkscape:pagecheckerboard="0"
     inkscape:deskcolor="#d1d1d1"
     showgrid="false"
     inkscape:zoom="1.3842609"
     inkscape:cx="1637.3359"
     inkscape:cy="78.019974"
     inkscape:window-width="1855"
     inkscape:window-height="1050"
     inkscape:window-x="65"
     inkscape:window-y="30"
     inkscape:window-maximized="1"
     inkscape:current-layer="svg96707" />
  <path
     d="m 40.883713,72.054741 c -3.211937,5.564041 -1.44154,12.392511 -1.365712,12.696002 0.126469,0.531156 0.480602,0.961116 0.961116,1.239332 0.303491,0.177021 0.657535,0.278126 1.011579,0.278126 0.17711,0 0.354133,0 0.531154,-0.07583 0.278216,-0.07591 7.106686,-1.972695 10.318622,-7.51137 3.211937,-5.56404 1.441629,-12.392509 1.365712,-12.696001 -0.126469,-0.531155 -0.480513,-0.961116 -0.961027,-1.239243 -0.455237,-0.278215 -1.036944,-0.354132 -1.542733,-0.202386 -0.278216,0.07591 -7.106775,1.972694 -10.318711,7.511368 z M 47.02946,54.427048 c -0.202387,-0.202298 -5.260549,-5.159355 -11.659147,-5.159355 -6.398552,0 -11.48201,4.931781 -11.684336,5.159355 -0.379363,0.379409 -0.60698,0.910474 -0.60698,1.441629 0,0.531065 0.227617,1.06222 0.60698,1.44154 0.202326,0.202297 5.260498,5.159356 11.65906,5.159356 6.398597,0 11.45676,-4.957059 11.659058,-5.159356 0.379409,-0.37932 0.606982,-0.910475 0.606982,-1.44154 0,-0.531155 -0.202297,-1.06222 -0.606982,-1.441629 m 6.676813,-8.674784 c 0.07591,-0.278126 1.846225,-7.131961 -1.365712,-12.696002 -3.211936,-5.563951 -10.01513,-7.435453 -10.318622,-7.51137 -0.531154,-0.151746 -1.087496,-0.07583 -1.542733,0.202387 -0.455238,0.278127 -0.809371,0.708088 -0.961116,1.239242 -0.07583,0.278215 -1.846225,7.131961 1.365712,12.696002 3.211936,5.563951 10.015219,7.435452 10.318711,7.51137 0.177021,0.05055 0.354044,0.07583 0.531065,0.07583 0.354044,0 0.708176,-0.101104 1.011668,-0.278126 0.455237,-0.278216 0.809281,-0.708177 0.961027,-1.239331 z M 74.82403,72.054741 C 71.612094,66.49079 64.8089,64.619289 64.505408,64.543372 c -0.531154,-0.151746 -1.087496,-0.07583 -1.542733,0.202386 -0.480514,0.278127 -0.809371,0.708088 -0.961116,1.239243 -0.07583,0.278215 -1.846225,7.131961 1.365712,12.696002 3.211936,5.563951 10.015219,7.435452 10.318711,7.511369 0.177021,0.05055 0.354044,0.07583 0.531065,0.07583 0.354133,0 0.708177,-0.101105 1.011668,-0.278126 0.455237,-0.278216 0.809281,-0.708176 0.961027,-1.239332 0.07591,-0.278126 1.846225,-7.131961 -1.365712,-12.696001 z"
     fill="#ffcc00"
     id="path104730"
     style="fill:#f9f9f9;fill-opacity:1;stroke-width:0.999998;opacity:1" />
  <path
     d="m 27.529802,71.700431 c -0.151746,0.531155 -0.07587,1.087496 0.202334,1.542734 0.278197,0.455237 0.70814,0.80928 1.239251,0.961027 0.151736,0.05064 2.149716,0.55643 4.805284,0.55643 2.377291,0 5.260461,-0.404685 7.89069,-1.922053 5.564041,-3.211938 7.435543,-10.01522 7.511371,-10.318711 0.126469,-0.531066 0.07591,-1.087496 -0.202299,-1.542734 -0.278215,-0.455237 -0.708176,-0.809281 -1.239241,-0.961026 -0.278216,-0.07592 -7.132051,-1.846226 -12.696002,1.365711 -5.563988,3.211937 -7.435515,10.01513 -7.511388,10.318622 z m 21.446631,-20.9661 c 0.278216,-0.480514 0.354044,-1.036945 0.202299,-1.542735 -0.07583,-0.278214 -1.972695,-7.106773 -7.511371,-10.31871 -5.563951,-3.211937 -12.392492,-1.441541 -12.695974,-1.365712 -0.531111,0.151746 -0.961054,0.480602 -1.239251,0.961115 -0.278208,0.455238 -0.35408,1.036944 -0.202334,1.542734 0.07587,0.278216 1.972686,7.106685 7.511388,10.318623 2.604954,1.517457 5.513399,1.922142 7.865414,1.922142 2.655594,0 4.653565,-0.531154 4.805312,-0.55643 0.531065,-0.126471 0.961026,-0.480514 1.239241,-0.961027 m 10.318622,-5.715698 c 0.202388,-0.202387 5.159356,-5.260549 5.159356,-11.659146 0,-6.398598 -4.956968,-11.45676 -5.159356,-11.659058 -0.379319,-0.37932 -0.910474,-0.606983 -1.44154,-0.606983 -0.531155,0 -1.06222,0.227663 -1.441629,0.606983 -0.202298,0.202298 -5.159266,5.26046 -5.159266,11.659058 0,6.398597 4.956968,11.456759 5.159266,11.659146 0.379409,0.37932 0.910474,0.606983 1.441629,0.606983 0.531066,0 1.062221,-0.202386 1.44154,-0.606983 z m 0,45.017668 c 0.202388,-0.202297 5.159356,-5.260459 5.159356,-11.684333 0,-6.423874 -4.956968,-11.45676 -5.159356,-11.659147 -0.379319,-0.379319 -0.910474,-0.606983 -1.44154,-0.606983 -0.531155,0 -1.06222,0.227664 -1.441629,0.606983 -0.202298,0.202387 -5.159266,5.260549 -5.159266,11.659147 0,6.398508 4.956968,11.456671 5.159266,11.684333 0.379409,0.37932 0.910474,0.606984 1.441629,0.606984 0.531066,0 1.062221,-0.202299 1.44154,-0.606984 z m 28.882156,-18.33587 c -0.07583,-0.278215 -1.972694,-7.106685 -7.51137,-10.318622 -5.563951,-3.211937 -12.39251,-1.44163 -12.696002,-1.365711 -0.531065,0.12638 -0.961027,0.480513 -1.239242,0.961026 -0.278215,0.480514 -0.354044,1.036944 -0.202298,1.542734 0.07583,0.278215 1.972695,7.106773 7.511371,10.318711 2.604953,1.517368 5.513398,1.922053 7.865413,1.922053 2.655595,0 4.653566,-0.505789 4.805312,-0.55643 0.531066,-0.151747 0.961027,-0.480514 1.239242,-0.961027 0.278126,-0.480514 0.354044,-1.011579 0.202298,-1.542734"
     fill="#ffed00"
     id="path104727"
     style="fill:#f9f9f9;fill-opacity:1;stroke-width:0.999998;opacity:1" />
  <path
     d="m 105.24928,45.449218 v -4.07186 h 8.97863 c 0.27768,-1.340346 0.42987,-2.554312 0.42987,-3.616533 0,-1.06222 -0.15219,-2.25091 -0.42987,-3.616622 h -8.97863 v -4.147687 h 11.81063 c 0.20292,-0.859922 0.35422,-1.643927 0.40495,-2.352015 0.0757,-0.733452 0.10146,-1.416353 0.10146,-2.099164 0,-0.682901 -0.0258,-1.390988 -0.10146,-2.124441 -0.0756,-0.733452 -0.20203,-1.542733 -0.40495,-2.37738 H 94.475328 v 33.434529 h 22.584582 c 0.20292,-0.859923 0.35422,-1.643927 0.40495,-2.402656 0.0757,-0.733363 0.10146,-1.466816 0.10146,-2.12444 0,-0.657535 -0.0258,-1.390988 -0.10146,-2.099075 -0.0756,-0.733454 -0.20203,-1.517458 -0.40495,-2.352104 h -11.81063 z m 27.82002,-3.793644 c -0.40495,-1.036944 -0.60698,-2.352015 -0.60698,-3.920025 0,-2.984362 0.68263,-5.058162 1.99806,-6.272128 1.34034,-1.213966 3.03491,-1.820949 5.05789,-1.820949 0.55625,0 1.06266,0 1.56819,0.02528 0.48061,0 0.98613,0.07583 1.49165,0.151746 0.50641,0.07583 1.03774,0.202298 1.61891,0.354044 0.58207,0.151746 1.21397,0.354044 1.94734,0.606983 0.73336,-1.365712 1.23977,-2.7567 1.5931,-4.172964 0.32931,-1.416264 0.45569,-2.857893 0.38004,-4.299433 -1.01194,-0.379409 -1.94733,-0.708176 -2.78216,-0.961116 -0.83482,-0.25285 -1.64384,-0.455237 -2.42793,-0.581618 -0.78409,-0.126469 -1.56818,-0.202386 -2.37721,-0.252939 -0.8099,-0.05055 -1.64383,-0.07591 -2.5543,-0.07591 -2.63086,0 -4.95733,0.429961 -7.00612,1.264608 -2.0479,0.859833 -3.76828,2.023247 -5.15936,3.540704 -1.39107,1.517457 -2.45285,3.313131 -3.18621,5.437482 -0.73336,2.124441 -1.08759,4.451268 -1.08759,7.005581 0,2.554401 0.35423,5.007609 1.08759,7.106773 0.70755,2.099076 1.79514,3.894749 3.21202,5.412206 1.416,1.517458 3.18622,2.655507 5.25993,3.464877 2.0746,0.80928 4.47672,1.213966 7.20815,1.213966 1.61891,0 3.21203,-0.101194 4.83094,-0.328768 1.61803,-0.202387 3.38825,-0.708176 5.33647,-1.466906 0,-1.820948 -0.20292,-3.4396 -0.6328,-4.88114 -0.42987,-1.416264 -0.98612,-2.706147 -1.71949,-3.844196 -1.23977,0.455238 -2.30155,0.809282 -3.21202,1.011669 -0.91047,0.202298 -1.97315,0.328767 -3.21203,0.328767 -0.98612,0 -1.89659,-0.126469 -2.78215,-0.379409 -0.88467,-0.25285 -1.64384,-0.682811 -2.30155,-1.264518 -0.65772,-0.581706 -1.18816,-1.416264 -1.59311,-2.453208 m 40.97135,-3.793644 c 0,2.680871 -0.45568,4.729395 -1.36615,6.170935 -0.91048,1.441629 -2.30156,2.175081 -4.17235,2.175081 -1.87167,0 -3.26276,-0.733452 -4.14831,-2.175081 -0.88466,-1.44154 -1.34034,-3.515429 -1.34034,-6.170935 0,-2.655505 0.45568,-4.805223 1.34034,-6.246852 0.88555,-1.44154 2.27664,-2.174992 4.14831,-2.174992 1.87079,0 3.26187,0.708176 4.17235,2.174992 0.91047,1.441629 1.36615,3.515428 1.36615,6.246852 z m 9.83811,6.980304 c 0.70755,-2.099164 1.03685,-4.425902 1.03685,-6.980304 0,-2.554401 -0.35422,-4.956968 -1.03685,-7.106685 -0.70844,-2.149716 -1.7453,-3.970666 -3.11056,-5.513399 -1.36616,-1.542823 -3.08565,-2.706148 -5.13444,-3.540793 -2.04879,-0.834558 -4.42599,-1.239243 -7.13161,-1.239243 -2.70649,0 -5.03297,0.404685 -7.05684,1.239243 -2.0479,0.834645 -3.74247,1.99797 -5.13354,3.540793 -1.36616,1.517368 -2.42794,3.363683 -3.11057,5.513399 -0.70844,2.149717 -1.06266,4.501732 -1.06266,7.106685 0,2.604954 0.35422,4.88114 1.06266,6.980304 0.70755,2.099076 1.74441,3.894749 3.11057,5.412206 1.39107,1.517458 3.08564,2.655507 5.13354,3.464877 2.02387,0.80928 4.40108,1.213966 7.05684,1.213966 2.65489,0 5.08282,-0.404686 7.13161,-1.213966 2.04879,-0.80937 3.74336,-1.972695 5.13444,-3.464877 1.36526,-1.517457 2.42793,-3.31313 3.11056,-5.412206 z m 29.792,7.334349 c 0.0765,-0.733453 0.10146,-1.466906 0.10146,-2.124441 0,-0.657534 -0.0249,-1.365711 -0.10146,-2.099164 -0.0498,-0.733453 -0.20203,-1.517457 -0.40406,-2.352014 h -12.03819 l 0.0756,-24.127486 c -0.88555,-0.202298 -1.79603,-0.354043 -2.73143,-0.455237 -0.93628,-0.101194 -1.79602,-0.12647 -2.60503,-0.12647 -0.85975,0 -1.7195,0.05055 -2.65578,0.12647 -0.91047,0.07583 -1.84587,0.227574 -2.78215,0.455237 l -0.0498,33.105672 h 22.8117 c 0.20292,-0.834557 0.35422,-1.643838 0.40495,-2.377291 m 25.8217,-14.289377 c 0,2.680872 -0.45479,4.729395 -1.36527,6.171024 -0.91047,1.44154 -2.30155,2.174993 -4.17322,2.174993 -1.87169,0 -3.23695,-0.733453 -4.14743,-2.174993 -0.88555,-1.441629 -1.34035,-3.515428 -1.34035,-6.171024 0,-2.655505 0.4548,-4.805222 1.34035,-6.246763 0.88467,-1.441629 2.27574,-2.175081 4.14743,-2.175081 1.87167,0 3.26275,0.708176 4.17322,2.175081 0.91048,1.441541 1.36527,3.515429 1.36527,6.246763 z m 9.83811,6.980305 c 0.70844,-2.099164 1.06266,-4.425903 1.06266,-6.980305 0,-2.554312 -0.35422,-4.956968 -1.06266,-7.106685 -0.70755,-2.149716 -1.7453,-3.970666 -3.11057,-5.513399 -1.39107,-1.542733 -3.08565,-2.706147 -5.13443,-3.540704 -2.0479,-0.834647 -4.42511,-1.239243 -7.1316,-1.239243 -2.70651,0 -5.03298,0.404596 -7.05596,1.239243 -2.04879,0.834557 -3.74336,1.997971 -5.13444,3.540704 -1.39107,1.517457 -2.42793,3.363683 -3.11057,5.513399 -0.70844,2.149717 -1.03685,4.501732 -1.03685,7.106685 0,2.604954 0.35422,4.881141 1.03685,6.980305 0.70845,2.099165 1.74531,3.894837 3.11057,5.412206 1.39108,1.517458 3.08565,2.655595 5.13444,3.464876 2.04879,0.809281 4.40018,1.213966 7.05596,1.213966 2.65576,0 5.10862,-0.404685 7.1316,-1.213966 2.02386,-0.809281 3.74336,-1.972695 5.13443,-3.464876 1.36527,-1.517369 2.42794,-3.313041 3.11057,-5.412206 z m 30.2735,9.25649 c 2.20008,-0.55643 3.91958,-1.06222 5.15935,-1.517457 V 36.395113 c -2.04878,-0.379409 -3.79409,-0.581706 -5.28573,-0.581706 -0.75917,0 -1.56819,0.05055 -2.37721,0.126469 -0.83482,0.07583 -1.7711,0.227575 -2.83288,0.455237 v 9.357596 h -1.13831 c -2.37721,0 -4.17323,-0.657535 -5.41213,-1.997971 -1.23888,-1.340436 -1.84586,-3.414235 -1.84586,-6.272128 0,-1.011668 0.12638,-1.997971 0.40406,-2.958998 0.27857,-0.961116 0.70844,-1.795672 1.31542,-2.503849 0.60699,-0.708087 1.36528,-1.289795 2.35229,-1.719755 0.98612,-0.429961 2.17517,-0.63226 3.56536,-0.63226 0.88555,0 1.94733,0.126469 3.1871,0.404596 1.23889,0.278216 2.57924,0.708177 4.02104,1.31516 0.37914,-0.935751 0.70844,-1.770308 0.98612,-2.50376 0.27857,-0.733453 0.50642,-1.441629 0.70846,-2.099165 0.17711,-0.657535 0.35422,-1.315159 0.4806,-1.947419 0.12638,-0.632259 0.20203,-1.31507 0.25276,-2.048523 -2.12445,-0.859922 -4.07177,-1.441629 -5.86692,-1.770397 -1.79602,-0.354043 -3.41494,-0.505789 -4.90659,-0.505789 -2.83288,0 -5.36228,0.455237 -7.51163,1.340436 -2.17518,0.885198 -3.97032,2.099075 -5.43793,3.616533 -1.46673,1.542733 -2.57924,3.338406 -3.3126,5.412295 -0.73336,2.073799 -1.1125,4.299433 -1.1125,6.626171 0,2.326738 0.30349,4.678842 0.91047,6.803282 0.60698,2.124441 1.5931,3.970667 2.95838,5.538676 1.36615,1.56801 3.11145,2.807252 5.26081,3.717726 2.14936,0.910475 4.75441,1.365712 7.78932,1.365712 3.03491,0 5.48865,-0.278215 7.71367,-0.834557 m 11.88689,0.455237 h 10.69786 v -33.48508 c -0.88467,-0.202387 -1.79514,-0.354133 -2.73142,-0.455237 -0.9354,-0.07592 -1.79514,-0.12647 -2.60505,-0.12647 -0.83393,0 -1.71949,0.05055 -2.62996,0.12647 -0.91047,0.07583 -1.82095,0.227574 -2.75635,0.455237 v 33.510356 z m 42.3117,-6.525067 c 0.65772,-1.390988 0.98613,-2.883169 0.98613,-4.50182 0,-1.618563 -0.20203,-2.88308 -0.6319,-3.995941 -0.42988,-1.112774 -1.01194,-2.023248 -1.7453,-2.781976 -0.73336,-0.75873 -1.61892,-1.390989 -2.65578,-1.871502 -1.03685,-0.480513 -2.17516,-0.910475 -3.43897,-1.239242 l -4.1225,-1.087497 c -0.58206,-0.177021 -1.1134,-0.379409 -1.594,-0.632258 -0.45479,-0.25294 -0.70756,-0.606983 -0.70756,-1.087586 0,-1.087497 1.59312,-1.770308 3.56536,-1.770308 1.34124,0 7.43599,0.758729 8.57431,1.239243 0,0 0.37914,-1.947419 0.45479,-4.274157 0.0757,-2.680872 -0.45479,-4.628202 -0.45479,-4.628202 -1.84677,-0.632259 -17.52686,-3.388959 -21.85139,4.805223 -0.68264,1.340436 -1.01194,3.692451 -1.01194,5.336377 0,2.604954 0.73337,4.678843 2.2259,6.1963 1.49165,1.517458 3.33841,2.604954 5.56343,3.237213 l 4.29961,1.213966 c 0.70844,0.202298 1.34034,0.455238 1.89748,0.733363 0.55626,0.278216 0.83394,0.682901 0.83394,1.239332 0,0.429872 -0.12638,0.758729 -0.40407,1.011579 -0.27857,0.25294 -0.63279,0.455237 -1.03685,0.606983 -0.43076,0.151746 -0.91047,0.252939 -1.46762,0.278215 -0.55625,0.05055 -1.08759,0.07591 -1.59311,0.07591 -1.46672,0 -8.44703,-0.227663 -9.78738,-0.859923 -0.73336,3.591258 -0.50552,6.676814 -0.0258,8.927635 3.21203,0.733452 7.91659,0.733452 9.93957,0.733452 2.45374,0 4.6031,-0.303491 6.4997,-0.885198 1.87168,-0.581707 3.46479,-1.390987 4.75529,-2.402567 1.28962,-1.011668 2.25083,-2.225634 2.90765,-3.616622 m 34.87669,-20.510858 c 0.0757,-0.733453 0.10146,-1.441629 0.10146,-2.124441 0,-0.6829 -0.0259,-1.365711 -0.10146,-2.099164 -0.0507,-0.708087 -0.20203,-1.492182 -0.40495,-2.352015 h -29.43867 c -0.20203,0.834557 -0.35334,1.618563 -0.40407,2.352015 -0.0508,0.733453 -0.10146,1.416264 -0.10146,2.099164 0,0.682812 0.0249,1.390988 0.10146,2.124441 0.0756,0.733452 0.20204,1.542733 0.40407,2.377291 h 9.38331 V 54.553962 H 358.891 V 29.920599 h 9.38332 c 0.20203,-0.834558 0.35333,-1.643839 0.40406,-2.377291 m 17.02134,18.234677 v -4.451179 h 8.80126 c 0.27768,-1.315159 0.40406,-2.50376 0.40406,-3.565981 0,-1.06222 -0.12638,-2.225634 -0.40406,-3.540704 h -8.80126 v -4.425904 h 11.55759 c 0.20203,-0.834645 0.35423,-1.593374 0.40496,-2.301461 0.0757,-0.708177 0.10057,-1.390988 0.10057,-2.048612 0,-0.657536 -0.0249,-1.365712 -0.10057,-2.099165 -0.0507,-0.733363 -0.20293,-1.517369 -0.40496,-2.326739 h -22.10414 v 33.586275 h 22.10414 c 0.20203,-0.834646 0.35423,-1.618652 0.40496,-2.352015 0.0757,-0.733453 0.10057,-1.416353 0.10057,-2.099165 0,-0.6829 -0.0249,-1.340435 -0.10057,-2.048612 -0.0507,-0.708087 -0.20293,-1.466816 -0.40496,-2.301462 h -11.55759 z m 28.30036,-14.89627 c 0,-1.087498 1.59311,-1.770398 3.56535,-1.770398 1.34125,0 7.43599,0.75873 8.57431,1.239243 0,0 0.37914,-1.94733 0.45479,-4.274157 0.0756,-2.680783 -0.45479,-4.628202 -0.45479,-4.628202 -1.84676,-0.632258 -17.52686,-3.388958 -21.85139,4.805312 -0.68264,1.340347 -1.01194,3.692451 -1.01194,5.336289 0,2.604954 0.73337,4.678842 2.22591,6.1963 1.46672,1.517457 3.33841,2.604953 5.56341,3.237213 l 4.29962,1.213965 c 0.70844,0.202298 1.34034,0.455238 1.89659,0.733453 0.55714,0.278215 0.83482,0.682811 0.83482,1.239242 0,0.429961 -0.12638,0.758729 -0.40406,1.011668 -0.27857,0.252851 -0.63279,0.455237 -1.03774,0.606894 -0.42987,0.151746 -0.91047,0.252939 -1.46672,0.278216 -0.55626,0.05064 -1.08759,0.07591 -1.59312,0.07591 -1.46672,0 -8.44702,-0.227663 -9.78738,-0.859922 -0.73336,3.591346 -0.50552,6.676813 -0.0259,8.927723 3.21203,0.733363 7.91659,0.733363 9.93957,0.733363 2.45374,0 4.6031,-0.30349 6.4997,-0.885109 1.87168,-0.581707 3.46479,-1.390987 4.75441,-2.402655 1.2905,-1.011669 2.2517,-2.225634 2.90853,-3.616622 0.65772,-1.390988 0.98702,-2.88317 0.98702,-4.501731 0,-1.618651 -0.20292,-2.88317 -0.63279,-3.995942 -0.42988,-1.112862 -1.01106,-2.023337 -1.74531,-2.782065 -0.73336,-0.75864 -1.61802,-1.390988 -2.65488,-1.871501 -1.03686,-0.480514 -2.17517,-0.910475 -3.43987,-1.239243 l -4.1225,-1.087496 c -0.58117,-0.177022 -1.1125,-0.37932 -1.5931,-0.632259 -0.45568,-0.25294 -0.70844,-0.606983 -0.70844,-1.087496"
     fill="#166a5d"
     id="path104724"
     style="fill:#f9f9f9;fill-opacity:1;stroke-width:0.999998;opacity:1" />
  <path
     d="m 72.320092,51.569243 c -0.02537,0.328768 -0.05065,0.63226 -0.05065,0.885199 0,0.25294 0,0.531065 0.05065,0.859922 0.02528,0.328768 0.07583,0.682811 0.126381,1.087496 h 15.781558 v -8.978274 c -0.37941,-0.07583 -0.708176,-0.126471 -0.986392,-0.151747 -0.278216,0 -0.531066,-0.02528 -0.784006,-0.02528 -0.227573,0 -0.455237,0 -0.733452,0.02528 -0.278215,0 -0.581706,0.07591 -0.961026,0.151747 v 5.083437 H 72.421196 c -0.05055,0.379409 -0.101104,0.733453 -0.126469,1.06222 m 12.493704,-17.14718 v 5.513399 h -3.13602 v -4.248881 c -0.632259,-0.126381 -1.213966,-0.202298 -1.719844,-0.202298 -0.50579,0 -1.06222,0.07591 -1.719756,0.202298 v 4.248881 h -2.427932 v -5.38693 c -0.682811,-0.126469 -1.264518,-0.177021 -1.745031,-0.177021 -0.25294,0 -0.50579,0 -0.784006,0.05055 -0.278214,0.02528 -0.581706,0.07591 -0.910474,0.126469 v 9.281767 h 15.832021 v -9.433512 c -0.606982,-0.12647 -1.188601,-0.202298 -1.745032,-0.202298 -0.505789,0 -1.06222,0.07583 -1.669202,0.202298 m 3.363682,-1.669203 c 0.278215,-1.542735 0.278215,-3.667175 0.278215,-4.602925 0,-1.18869 -0.151745,-2.225635 -0.429961,-3.136108 -0.278215,-0.88511 -0.657535,-1.643839 -1.138048,-2.250822 -0.455238,-0.581707 -1.011668,-1.036944 -1.643927,-1.340436 -0.63226,-0.303491 -1.340436,-0.455237 -2.073889,-0.455237 -0.733452,0 -1.340435,0.101193 -1.846225,0.278216 -0.480513,0.177021 -0.910474,0.455237 -1.239242,0.758728 -0.354044,0.328768 -0.632259,0.733453 -0.834557,1.18869 -0.227663,0.50579 -0.429961,1.062131 -0.581707,1.669114 l -0.556431,2.099165 c -0.101193,0.328767 -0.227573,0.632259 -0.354044,0.910474 -0.227662,0.404685 -0.55643,0.606984 -0.986392,0.606984 -0.834556,0 -1.390988,-0.935751 -1.390988,-2.301463 0,-0.531066 0.25294,-2.7567 0.505879,-3.945389 -0.379408,-0.05055 -0.935839,-0.12647 -1.568099,-0.12647 -0.859833,0 -1.568009,0.07591 -1.922053,0.151746 -0.354132,1.568098 -1.289883,8.32074 2.25091,10.192241 0.581618,0.303492 1.694479,0.455237 2.453208,0.455237 1.213877,0 2.124351,-0.328768 2.781976,-0.986303 0.708087,-0.6829 1.213966,-1.542822 1.492182,-2.604954 l 0.606893,-2.175081 c 0.12647,-0.404596 0.25294,-0.733364 0.404686,-1.036855 0.227662,-0.455238 0.606982,-0.682901 1.06222,-0.682901 0.354044,0 0.657535,0.12647 0.885198,0.379409 0.177022,0.177022 0.303491,0.429872 0.404685,0.708088 0.101105,0.252939 0.151657,0.531154 0.177022,0.859921 0,0.278216 0.02528,0.581708 0.02528,0.834558 0,0.02528 -0.05065,3.085468 -0.303492,4.552373 1.416264,0.227663 2.630231,0.126469 3.490153,0 m 14.188091,29.79263 h -7.688389 c -0.177022,0 -0.278216,0.101104 -0.278216,0.278215 V 74.43221 c 0,0.177023 0.101194,0.278216 0.278216,0.278216 h 7.688389 c 0.17711,0 0.27821,-0.101193 0.27821,-0.278216 v -1.188689 c 0,-0.177023 -0.1011,-0.278216 -0.27821,-0.278216 h -5.842164 c 0,0 -0.101104,-0.05055 -0.101104,-0.101193 v -3.338318 c 0,0 0.05055,-0.101193 0.101104,-0.101193 h 3.894834 c 0.17702,0 0.27813,-0.101194 0.27813,-0.278216 v -1.188689 c 0,-0.177022 -0.10111,-0.278127 -0.27813,-0.278127 h -3.894834 c 0,0 -0.101104,-0.05065 -0.101104,-0.101194 v -3.211936 c 0,0 0.02528,-0.101194 0.101104,-0.101194 h 5.842164 c 0.17711,0 0.27821,-0.101104 0.27821,-0.278215 v -1.188601 c 0,-0.177111 -0.1011,-0.278215 -0.27821,-0.278215 z M 111.7738,7.2091193 c 0,-0.3540705 -0.10118,-0.7081401 -0.35412,-0.9863385 -0.25286,-0.2781994 -0.60698,-0.4552357 -0.96103,-0.4805265 -0.2023,0 -5.08344,-0.3793629 -8.37129,2.3773394 -3.28777,2.7566993 -3.61654,7.4102563 -3.61654,7.6125553 0,0.354043 0.10111,0.708176 0.35405,0.986303 0.17702,0.177021 0.37932,0.328767 0.60698,0.404684 0.10119,0.05055 0.22757,0.07583 0.35404,0.07583 0.20239,0 5.08344,0.379408 8.3713,-2.377291 3.28776,-2.756709 3.61661,-7.4102211 3.61661,-7.6125537 z m 5.86728,63.5559177 v -7.966608 c 0,-0.177111 -0.10057,-0.278215 -0.27768,-0.278215 h -1.46763 c -0.17622,0 -0.27768,0.101104 -0.27768,0.278215 v 7.991884 c 0,1.365712 -0.93628,2.326738 -2.35228,2.326738 -1.41618,0 -2.35193,-0.93575 -2.35193,-2.326738 v -7.991884 c 0,-0.177111 -0.10118,-0.278215 -0.27821,-0.278215 h -1.46682 c -0.17711,0 -0.27821,0.101104 -0.27821,0.278215 v 7.966608 c 0,2.478484 1.77031,4.097134 4.37517,4.097134 2.60504,0 4.37527,-1.61865 4.37527,-4.097134 z m 11.43121,-2.88317 h -2.60416 c 0,0 -0.10146,-0.02528 -0.10146,-0.101193 v -3.439511 c 0,0 0.0249,-0.101194 0.10146,-0.101194 h 2.60416 c 1.11339,0 1.87168,0.758729 1.87168,1.846225 0,1.087496 -0.75829,1.795673 -1.87168,1.795673 z m 3.71844,6.828559 c 0.20203,0 0.30349,-0.151745 0.20203,-0.328857 l -2.40302,-4.982244 c 0,0 0,-0.12647 0.0508,-0.12647 1.4169,-0.429961 2.32737,-1.593286 2.32737,-3.211937 0,-2.12444 -1.44182,-3.56598 -3.59206,-3.56598 h -4.7286 c -0.17711,0 -0.27857,0.101104 -0.27857,0.278126 V 74.43221 c 0,0.177023 0.10146,0.278216 0.27857,0.278216 h 1.46673 c 0.17711,0 0.27768,-0.101193 0.27768,-0.278216 v -4.88114 c 0,0 0.0508,-0.101193 0.10146,-0.101193 h 2.0488 c 0,0 0.10057,0 0.12638,0.07591 l 2.27573,4.982245 c 0.0765,0.151746 0.17711,0.202387 0.3293,0.202387 z m 13.07505,-4.046583 c 0,1.492182 -0.9612,2.478484 -2.42793,2.478484 -1.46672,0 -2.40301,-0.986302 -2.40301,-2.478484 v -4.071859 c 0,-1.492093 0.96121,-2.478485 2.40301,-2.478485 1.44181,0 2.42793,0.986392 2.42793,2.478485 z m 2.02298,-0.07583 v -3.970666 c 0,-2.554402 -1.77022,-4.248882 -4.45091,-4.248882 -2.6807,0 -4.42599,1.69448 -4.42599,4.248882 v 3.970665 c 0,2.57959 1.77021,4.274157 4.42599,4.274157 2.65577,0 4.45091,-1.694567 4.45091,-4.274156 z m 13.07595,-4.400627 c 0,1.13805 -0.7841,1.896778 -1.97314,1.896778 h -2.57923 c 0,0 -0.10146,-0.05055 -0.10146,-0.101104 v -3.641898 c 0,0 0.0508,-0.101194 0.10146,-0.101194 h 2.57923 c 1.18904,0 1.97314,0.784005 1.97314,1.947418 z m 2.02298,-0.05064 c 0,-2.174992 -1.49254,-3.641809 -3.69263,-3.641809 h -4.72949 c -0.17711,0 -0.27768,0.101105 -0.27768,0.278126 V 74.43221 c 0,0.177022 0.10057,0.278216 0.27768,0.278216 h 1.46763 c 0.17622,0 0.27768,-0.101194 0.27768,-0.278216 v -4.602924 c 0,0 0.0508,-0.101194 0.10146,-0.101194 h 2.78215 c 2.27574,0 3.7932,-1.44154 3.7932,-3.591346 z m 14.31483,8.295464 v -1.18869 c 0,-0.177022 -0.10146,-0.278215 -0.27857,-0.278215 h -5.84199 c 0,0 -0.10146,-0.05055 -0.10146,-0.101194 V 69.5258 c 0,0 0.0507,-0.101194 0.10146,-0.101194 h 3.89465 c 0.17711,0 0.27858,-0.101193 0.27858,-0.278215 v -1.18869 c 0,-0.177021 -0.10147,-0.278127 -0.27858,-0.278127 h -3.89465 c 0,0 -0.10146,-0.05065 -0.10146,-0.101193 v -3.211936 c 0,0 0.0258,-0.101194 0.10146,-0.101194 h 5.84199 c 0.17711,0 0.27857,-0.101105 0.27857,-0.278215 v -1.188602 c 0,-0.17711 -0.10146,-0.278215 -0.27857,-0.278215 h -7.68786 c -0.17711,0 -0.27857,0.101105 -0.27857,0.278215 v 11.633782 c 0,0.177022 0.10146,0.278216 0.27857,0.278216 h 7.68786 c 0.17711,0 0.27857,-0.101194 0.27857,-0.278216 z m 20.00463,-15.073382 c 0.12638,-0.202297 0.0507,-0.328767 -0.17711,-0.328767 h -1.36527 c -0.15219,0 -0.25276,0.07583 -0.3293,0.202298 l -0.91048,1.643927 c -0.10057,0.202298 0,0.328768 0.20292,0.328768 h 1.13832 c 0.12638,0 0.25276,-0.02528 0.32841,-0.177022 z m 2.32736,15.073382 v -1.18869 c 0,-0.177022 -0.10147,-0.278215 -0.27858,-0.278215 h -5.84198 c 0,0 -0.10146,-0.05055 -0.10146,-0.101194 V 69.5258 c 0,0 0.0508,-0.101194 0.10146,-0.101194 h 3.89466 c 0.17711,0 0.27857,-0.101193 0.27857,-0.278215 v -1.18869 c 0,-0.177021 -0.10146,-0.278127 -0.27857,-0.278127 h -3.89466 c 0,0 -0.10146,-0.05065 -0.10146,-0.101193 v -3.211936 c 0,0 0.0259,-0.101194 0.10146,-0.101194 h 5.84198 c 0.17711,0 0.27858,-0.101105 0.27858,-0.278215 v -1.188602 c 0,-0.17711 -0.10147,-0.278215 -0.27858,-0.278215 h -7.68874 c -0.17622,0 -0.27768,0.101105 -0.27768,0.278215 v 11.633782 c 0,0.177022 0.10146,0.278216 0.27768,0.278216 h 7.68874 c 0.17711,0 0.27858,-0.101194 0.27858,-0.278216 z m 14.76963,-3.540704 v -0.07591 c 0,0 -0.10146,-0.07583 -0.27858,-0.07583 l -1.46673,-0.07591 c -0.17711,0 -0.27768,0.07591 -0.27768,0.202298 0,1.365712 -0.91047,2.276186 -2.32736,2.276186 -1.416,0 -2.35228,-0.910474 -2.35228,-2.276186 V 66.41496 c 0,-1.365712 0.93628,-2.276186 2.35228,-2.276186 1.41689,0 2.32736,0.910474 2.32736,2.276186 v 0.101193 c 0,0 0.10057,0.101194 0.27768,0.07583 l 1.49254,-0.07583 c 0.17712,0 0.25277,-0.07591 0.25277,-0.202297 0,-2.352104 -1.74531,-3.920114 -4.35035,-3.920114 -2.60504,0 -4.37526,1.618651 -4.37526,4.071859 v 4.299434 c 0,2.453208 1.7453,4.097134 4.37526,4.097134 2.63085,0 4.35035,-1.568098 4.35035,-3.945389 m 12.97447,-0.227663 c 0,1.492182 -0.9612,2.478485 -2.42792,2.478485 -1.46763,0 -2.40302,-0.986303 -2.40302,-2.478485 v -4.07177 c 0,-1.492182 0.9612,-2.478573 2.40302,-2.478573 1.44091,0 2.42792,0.986391 2.42792,2.478573 z m 2.02299,-0.07583 v -3.970666 c 0,-2.554402 -1.77023,-4.248881 -4.45091,-4.248881 -2.68159,0 -4.426,1.694479 -4.426,4.248881 v 3.970665 c 0,2.579679 1.77022,4.274158 4.426,4.274158 2.65487,0 4.45091,-1.694479 4.45091,-4.274157 z m 14.66816,3.81892 v -1.188689 c 0,-0.177023 -0.10057,-0.278216 -0.27768,-0.278216 h -5.74142 c 0,0 -0.10058,-0.05055 -0.10058,-0.101193 v -10.06568 c 0,-0.177111 -0.10146,-0.278215 -0.27857,-0.278215 h -1.46672 c -0.17711,0 -0.27857,0.101104 -0.27857,0.278215 V 74.43221 c 0,0.177023 0.10146,0.278216 0.27857,0.278216 h 7.58729 c 0.17711,0 0.27768,-0.101193 0.27768,-0.278215 z m 12.51969,-3.768367 c 0,1.492182 -0.9612,2.478484 -2.42793,2.478484 -1.46673,0 -2.40302,-0.986302 -2.40302,-2.478484 v -4.071859 c 0,-1.492093 0.96121,-2.478485 2.40302,-2.478485 1.44092,0 2.42793,0.986392 2.42793,2.478485 z m 2.02298,-0.07583 v -3.970667 c 0,-2.554402 -1.77022,-4.248882 -4.45091,-4.248882 -2.6807,0 -4.42599,1.69448 -4.42599,4.248882 v 3.970665 c 0,2.57959 1.77021,4.274157 4.42599,4.274157 2.65488,0 4.45091,-1.694567 4.45091,-4.274157 z m 14.92182,0 v -2.149805 c 0,-0.177022 -0.10146,-0.278127 -0.27857,-0.278127 h -3.89466 c -0.17712,0 -0.27858,0.101105 -0.27858,0.278127 v 1.138137 c 0,0.177023 0.10146,0.278216 0.27858,0.278216 h 2.04878 c 0,0 0.10057,0.02528 0.10057,0.101104 v 1.06222 c 0,1.289884 -0.85974,2.048612 -2.25082,2.048612 -1.39107,0 -2.42793,-0.910473 -2.42793,-2.326738 V 66.38968 c 0,-1.390988 0.93629,-2.301463 2.35228,-2.301463 1.416,0 2.32647,0.910475 2.32647,2.149717 v 0.12647 c 0,0 0.10146,0.151745 0.27857,0.151745 h 1.44182 c 0.17711,0 0.27768,-0.101193 0.27768,-0.278215 v -0.07583 c 0,-2.200357 -1.7195,-3.844285 -4.34946,-3.844285 -2.63085,0 -4.37526,1.643928 -4.37526,4.122412 v 4.223605 c 0,2.478484 1.74441,4.122411 4.37526,4.122411 2.62996,0 4.34946,-1.517457 4.34946,-4.223605 m 8.4221,3.81892 V 62.747788 c 0,-0.177022 -0.10146,-0.278215 -0.27857,-0.278215 h -1.46672 c -0.17711,0 -0.27768,0.101193 -0.27768,0.278215 v 11.633781 c 0,0.177112 0.10057,0.278216 0.27768,0.278216 h 1.46672 c 0.17711,0 0.27857,-0.101104 0.27857,-0.278216 z m 15.07312,0 v -1.1886 c 0,-0.177112 -0.10057,-0.278216 -0.27769,-0.278216 h -5.84287 c 0,0 -0.10057,-0.05065 -0.10057,-0.101193 v -3.338407 c 0,0 0.0507,-0.101104 0.10057,-0.101104 h 3.89555 c 0.17711,0 0.27768,-0.101194 0.27768,-0.278216 v -1.18869 c 0,-0.177022 -0.10057,-0.278215 -0.27768,-0.278215 h -3.89555 c 0,0 -0.10057,-0.05055 -0.10057,-0.101105 v -3.211937 c 0,0 0.0249,-0.101193 0.10057,-0.101193 h 5.84287 c 0.17712,0 0.27769,-0.101194 0.27769,-0.278215 v -1.18869 c 0,-0.177022 -0.10057,-0.278215 -0.27769,-0.278215 h -7.68874 c -0.17711,0 -0.27857,0.101193 -0.27857,0.278215 v 11.633781 c 0,0.177112 0.10146,0.278216 0.27857,0.278216 h 7.68874 c 0.17712,0 0.27769,-0.101104 0.27769,-0.278216 z m 22.23053,0 v -1.1886 c 0,-0.177112 -0.10057,-0.278216 -0.27768,-0.278216 h -5.74142 c 0,0 -0.10057,-0.05065 -0.10057,-0.101193 V 62.747788 c 0,-0.177022 -0.10146,-0.278215 -0.27857,-0.278215 h -1.46673 c -0.17711,0 -0.27857,0.101193 -0.27857,0.278215 v 11.633781 c 0,0.177112 0.10146,0.278216 0.27857,0.278216 h 7.58729 c 0.17711,0 0.27768,-0.101104 0.27768,-0.278216 z m 14.31483,0 v -1.1886 c 0,-0.177112 -0.10057,-0.278216 -0.27768,-0.278216 h -5.84288 c 0,0 -0.10057,-0.05065 -0.10057,-0.101193 v -3.338407 c 0,0 0.0507,-0.101104 0.10057,-0.101104 h 3.89555 c 0.17622,0 0.27768,-0.101194 0.27768,-0.278216 v -1.18869 c 0,-0.177022 -0.10146,-0.278215 -0.27768,-0.278215 h -3.89555 c 0,0 -0.10057,-0.05055 -0.10057,-0.101105 v -3.211937 c 0,0 0.0249,-0.101193 0.10057,-0.101193 h 5.84288 c 0.17711,0 0.27768,-0.101194 0.27768,-0.278215 v -1.18869 c 0,-0.177022 -0.10057,-0.278215 -0.27768,-0.278215 h -7.68875 c -0.17711,0 -0.27857,0.101193 -0.27857,0.278215 v 11.633781 c 0,0.177112 0.10146,0.278216 0.27857,0.278216 h 7.68875 c 0.17711,0 0.27768,-0.101104 0.27768,-0.278216 z m 7.94151,-8.775888 c 0,-0.986303 0.73337,-1.542734 2.02298,-1.542734 1.64383,0 2.5294,0.910475 2.5294,1.947419 v 0.202298 c 0,0 0.10146,0.202298 0.27857,0.202298 h 1.44091 c 0.17711,0 0.27857,-0.101104 0.27857,-0.278216 v -0.227573 c 0,-2.149718 -1.77021,-3.591347 -4.42599,-3.591347 -2.45285,0 -4.09758,1.239332 -4.09758,3.313131 0,2.225634 1.87168,2.958997 3.79409,3.667174 1.87167,0.733453 2.78216,1.138138 2.78216,2.149717 0,0.885198 -0.65772,1.61865 -2.15026,1.61865 -1.5931,0 -2.57923,-0.834645 -2.57923,-1.8715 v -0.278216 c 0,-0.177021 -0.10146,-0.252939 -0.27857,-0.252939 h -1.416 c -0.17711,0 -0.27857,0.101194 -0.27857,0.278215 v 0.37932 c 0,2.12444 1.72038,3.490152 4.40107,3.490152 2.6807,0 4.32453,-1.365712 4.32453,-3.414235 0,-2.225634 -1.99805,-2.958997 -3.76828,-3.641897 -1.99805,-0.733453 -2.83288,-1.087497 -2.83288,-2.149717 m 25.82259,8.826529 3.66682,-11.659146 c 0.0508,-0.202298 -0.0249,-0.303491 -0.22784,-0.303491 h -1.54239 c -0.15219,0 -0.27857,0.07591 -0.30349,0.252938 l -2.55431,8.978276 c 0,0 -0.10146,0.07583 -0.12638,0 l -2.58012,-9.003552 c -0.0507,-0.177021 -0.1513,-0.227662 -0.30349,-0.227662 h -1.59311 c -0.20203,0 -0.27857,0.126469 -0.22784,0.303491 l 3.59117,11.659146 c 0.0507,0.151747 0.15219,0.227575 0.30349,0.227575 h 1.594 c 0.1513,0 0.25276,-0.07583 0.30349,-0.227575 z m 17.85527,-0.05065 v -1.1886 c 0,-0.177112 -0.10146,-0.278216 -0.27857,-0.278216 h -5.842 c 0,0 -0.10146,-0.05065 -0.10146,-0.101193 v -3.338407 c 0,0 0.0507,-0.101104 0.10146,-0.101104 h 3.89466 c 0.17711,0 0.27857,-0.101193 0.27857,-0.278216 v -1.188689 c 0,-0.177023 -0.10146,-0.278216 -0.27857,-0.278216 h -3.89466 c 0,0 -0.10146,-0.05055 -0.10146,-0.101104 v -3.211933 c 0,0 0.0259,-0.101193 0.10146,-0.101193 h 5.842 c 0.17711,0 0.27857,-0.101194 0.27857,-0.278215 v -1.18869 c 0,-0.177022 -0.10146,-0.278215 -0.27857,-0.278215 h -7.68786 c -0.17711,0 -0.27857,0.101193 -0.27857,0.278215 v 11.633781 c 0,0.177112 0.10146,0.278216 0.27857,0.278216 h 7.68786 c 0.17711,0 0.27857,-0.101104 0.27857,-0.278216 z m 11.05207,-6.550254 h -2.60505 c 0,0 -0.10146,-0.02536 -0.10146,-0.101194 v -3.4396 c 0,0 0.0258,-0.101104 0.10146,-0.101104 h 2.60505 c 1.1125,0 1.87168,0.758729 1.87168,1.846225 0,1.087496 -0.75918,1.795673 -1.87168,1.795673 z m 3.71755,6.82847 c 0.20203,0 0.30349,-0.151746 0.20203,-0.328768 l -2.40212,-4.982333 c 0,0 0,-0.126381 0.0508,-0.126381 1.44093,-0.429961 2.32648,-1.593375 2.32648,-3.211937 0,-2.12444 -1.44181,-3.566069 -3.59117,-3.566069 h -4.72948 c -0.17712,0 -0.27858,0.101193 -0.27858,0.278215 v 11.659057 c 0,0.177112 0.10146,0.278216 0.27858,0.278216 h 1.46672 c 0.17711,0 0.27857,-0.101104 0.27857,-0.278216 v -4.88114 c 0,0 0.0498,-0.101104 0.10057,-0.101104 h 2.0488 c 0,0 0.10146,0 0.12638,0.07583 l 2.27662,4.982334 c 0.0757,0.151746 0.17711,0.202298 0.32841,0.202298 h 1.54239 z m 14.71889,-10.723307 v -1.213966 c 0,-0.177022 -0.10057,-0.278215 -0.27768,-0.278215 h -8.34646 c -0.17711,0 -0.27768,0.101193 -0.27768,0.278215 v 1.213966 c 0,0.177022 0.10057,0.278215 0.27768,0.278215 h 2.98508 c 0,0 0.10057,0.05055 0.10057,0.101193 v 10.040407 c 0,0.177022 0.10146,0.278216 0.27857,0.278216 h 1.46672 c 0.17711,0 0.27857,-0.101194 0.27857,-0.278216 V 64.315886 c 0,0 0.0249,-0.101193 0.10057,-0.101193 h 3.11057 c 0.17711,0 0.27857,-0.101194 0.27857,-0.278215 m 14.18846,2.200268 v -0.227573 c 0,-2.149718 -1.77023,-3.591347 -4.426,-3.591347 -2.45374,0 -4.09758,1.239332 -4.09758,3.313131 0,2.225634 1.87168,2.958997 3.79409,3.667174 1.87168,0.733453 2.78215,1.138138 2.78215,2.149717 0,0.885198 -0.65771,1.61865 -2.15025,1.61865 -1.59311,0 -2.57923,-0.834645 -2.57923,-1.8715 v -0.278216 c 0,-0.177021 -0.10146,-0.252939 -0.27857,-0.252939 h -1.416 c -0.17711,0 -0.27857,0.101194 -0.27857,0.278215 v 0.37932 c 0,2.12444 1.72038,3.490152 4.40107,3.490152 2.68069,0 4.32454,-1.365712 4.32454,-3.414235 0,-2.225634 -1.99807,-2.958997 -3.76829,-3.641897 -1.99806,-0.733453 -2.83288,-1.087497 -2.83288,-2.149717 0,-0.986303 0.73336,-1.542734 2.02387,-1.542734 1.64384,0 2.5285,0.910475 2.5285,1.947419 v 0.202298 c 0,0 0.10146,0.202298 0.27857,0.202298 h 1.416 c 0.17711,0 0.27858,-0.101104 0.27858,-0.278216 z"
     fill="#4bb166"
     id="path104721"
     style="fill:#f9f9f9;fill-opacity:1;stroke-width:0.999998;opacity:1" />
</svg>
