<?xml version="1.0" encoding="UTF-8" standalone="no"?>
<!-- Created with Inkscape (http://www.inkscape.org/) -->

<svg
   width="82.039787mm"
   height="42.069901mm"
   viewBox="0 0 82.039787 42.069901"
   version="1.1"
   id="svg26560"
   inkscape:version="1.2.2 (b0a8486541, 2022-12-01)"
   sodipodi:docname="signature.svg"
   xmlns:inkscape="http://www.inkscape.org/namespaces/inkscape"
   xmlns:sodipodi="http://sodipodi.sourceforge.net/DTD/sodipodi-0.dtd"
   xmlns="http://www.w3.org/2000/svg"
   xmlns:svg="http://www.w3.org/2000/svg">
  <sodipodi:namedview
     id="namedview26562"
     pagecolor="#ffffff"
     bordercolor="#666666"
     borderopacity="1.0"
     inkscape:showpageshadow="2"
     inkscape:pageopacity="0.0"
     inkscape:pagecheckerboard="0"
     inkscape:deskcolor="#d1d1d1"
     inkscape:document-units="mm"
     showgrid="false"
     inkscape:zoom="1.1893044"
     inkscape:cx="141.67946"
     inkscape:cy="112.6709"
     inkscape:window-width="1855"
     inkscape:window-height="1050"
     inkscape:window-x="65"
     inkscape:window-y="30"
     inkscape:window-maximized="1"
     inkscape:current-layer="layer1" />
  <defs
     id="defs26557" />
  <g
     inkscape:label="Layer 1"
     inkscape:groupmode="layer"
     id="layer1"
     transform="translate(-6.4961521,-6.3943888)">
    <path
       id="path19285"
       style="fill:#000000;stroke-width:0.999998"
       d="m 80.863937,9.0582633 c -2.105527,0.44658 -4.150548,1.1221517 -6.195008,1.7961997 -3.234512,1.089716 -6.438299,2.27445 -9.579022,3.616622 -1.013026,0.43238 -2.001571,0.91862 -2.985633,1.412272 -0.166883,0.06378 -0.299977,0.126198 -0.0493,0.170678 0.454895,0.178605 1.018231,0.275145 1.281865,0.737315 0.04448,0.133101 0.223432,-0.05791 0.328251,-0.06788 0.884726,-0.388283 1.771898,-0.775319 2.689482,-1.081752 1.388341,-0.532297 2.771547,-1.08095 4.183886,-1.545846 2.574698,-0.860894 5.151848,-1.714972 7.72603,-2.57763 0.913276,-0.295832 1.823825,-0.605498 2.751336,-0.852582 0.319973,-0.04169 0.528475,0.292045 0.552368,0.573882 0.02762,0.267912 0.01729,0.538817 0.02762,0.807977 -1.051641,0.322387 -2.10322,0.64474 -3.154862,0.967091 -0.110678,0.519104 -0.220671,1.038306 -0.331696,1.55733 -1.834204,0.693014 -3.642893,1.484849 -5.557682,1.933719 -0.338939,0.07136 -0.678048,0.143087 -1.017121,0.214461 -0.425315,-0.296526 -0.850729,-0.59299 -1.276079,-0.889516 -1.934748,0.611956 -3.862358,1.238594 -5.756833,1.962538 -0.177228,0.120683 -0.376763,-0.01729 -0.485894,-0.162748 -0.20688,-0.198258 -0.41383,-0.396311 -0.620745,-0.594469 0.03104,0.237222 -0.143092,0.552126 -0.416899,0.490926 -0.339284,-0.06788 -0.534441,-0.395971 -0.762838,-0.625471 -0.222396,-0.252732 -0.441104,-0.507852 -0.661639,-0.762348 -0.524442,0.224466 -1.06071,0.457653 -1.634839,0.507264 -0.190675,0.02414 -0.364352,0.123444 -0.471894,0.281703 -0.504962,0.451693 -1.211908,0.51603 -1.801241,0.809733 -1.618255,0.688702 -3.145275,1.568125 -4.733843,2.318234 -0.448516,0.201714 -0.943238,0.425244 -1.445751,0.326529 -0.474584,-0.122402 -0.797731,-0.524234 -1.162944,-0.817901 -0.168608,8.91e-4 -0.328596,0.09827 -0.496617,0.12895 -1.3039,0.371731 -2.609696,0.797733 -3.968798,0.903449 -0.35087,0.01033 -0.701773,0.01729 -1.052678,0.02414 -0.07034,-0.1962 -0.140678,-0.392559 -0.211017,-0.588857 -0.708843,0.808771 -1.41703,1.618156 -2.12632,2.426543 -0.546302,-0.124477 -1.092743,-0.248607 -1.639081,-0.373183 -0.730806,0.788219 -1.461611,1.576392 -2.192382,2.364647 -0.444138,-0.224466 -0.887622,-0.44993 -1.331484,-0.674778 -0.431174,0.576099 -0.862589,1.15202 -1.293625,1.728245 -0.278599,-0.445893 -0.555992,-0.89234 -0.834108,-1.338448 -0.205157,0.0036 -0.410416,0.0072 -0.615607,0.01381 -0.126543,0.557793 -0.253775,1.11547 -0.38011,1.67329 -0.285839,8.9e-4 -0.601539,0.03448 -0.869657,-0.01729 0.0035,0.583297 0.01034,1.166596 0.01379,1.749929 -0.538338,0.410073 -1.076366,0.820557 -1.614604,1.230808 0.0062,0.273079 0.01207,0.546194 0.01759,0.81931 -0.600754,0.395213 -1.202381,0.789083 -1.803499,1.183708 -0.01586,-0.518926 -0.07327,-1.063676 0.146609,-1.551744 0.385012,-1.02406 0.981715,-1.959784 1.674158,-2.80255 0.262186,-0.297212 0.550967,-0.6236 0.946248,-0.730937 0.118266,-0.02414 0.239636,-0.01729 0.359661,-0.01729 -0.5332,-0.284464 -0.841865,-0.829082 -1.257148,-1.246077 -0.09317,-0.113102 0.03941,-0.269979 0.169953,-0.217232 0.389042,0.141368 0.779496,0.281016 1.169396,0.420727 0.16585,-0.635082 0.205501,-1.309273 0.239637,-1.970333 0.0562,-0.822418 0.350386,-1.601523 0.722358,-2.333467 0.09689,-0.18861 0.196881,-0.37632 0.184813,-0.594924 0.09034,-1.000988 0.181021,-2.001949 0.271359,-3.002937 -0.349422,-0.28964 -0.668638,-0.623786 -1.069159,-0.845625 -0.329285,0.558399 -0.523511,1.184565 -0.710946,1.801616 -0.133093,0.458242 -0.153091,0.945925 -0.333422,1.398207 -0.261532,0.767899 -0.692716,1.475157 -0.877864,2.268614 -0.07157,0.573784 -0.295115,1.11229 -0.469267,1.659838 -0.349522,0.989853 -0.736171,1.967884 -1.11148,2.947287 -0.869646,1.172154 -1.722164,2.359889 -2.608488,3.517871 -1.079045,0.763871 -2.157954,1.527886 -3.237073,2.291651 -0.687018,-0.281702 -1.311909,-0.688497 -1.918958,-1.111194 -0.353767,0.369798 -0.707546,0.73957 -1.061322,1.109368 0.334698,0.608224 0.669384,1.216492 1.004057,1.824752 -0.0039,1.024479 0.133783,2.075942 -0.152919,3.07611 -0.139506,0.332044 -0.517192,0.44307 -0.802631,0.613952 -2.011145,1.021994 -4.150615,1.765038 -6.173187,2.751167 -0.609984,0.274121 -1.160724,0.653576 -1.716502,1.020747 -0.333251,-0.318245 -0.666098,-0.637221 -0.999424,-0.955546 0.622152,-0.815621 1.202236,-1.678003 1.986427,-2.351508 0.80782,-0.737217 1.66923,-1.43685 2.649103,-1.932543 0.239258,-0.108264 0.503144,-0.170677 0.766665,-0.148264 -0.01655,-0.309968 -0.01379,-0.621398 -0.02448,-0.931992 -0.469385,-0.29274 -0.938762,-0.585302 -1.40816,-0.877971 -1.109731,0.93838 -2.245568,1.847548 -3.426416,2.695792 -0.475877,0.946789 -0.915339,1.911681 -1.377631,2.8654 -0.158057,0.347768 -0.344629,0.689326 -0.485035,1.04096 8.9e-4,0.672391 0.03517,1.348097 0.195812,2.003668 0.164849,0.775774 0.42526,1.526337 0.654515,2.284481 0.425502,0.456307 0.851014,0.91259 1.276529,1.368861 1.435114,-0.360524 2.895966,-0.611199 4.360726,-0.812832 0.189641,0.01033 0.308046,-0.196538 0.442035,-0.315154 1.426925,-1.455087 2.900828,-2.874121 4.19102,-4.451619 0.2546,-0.328596 0.50615,-0.659055 0.758051,-0.989647 0.584231,-0.01381 1.168452,-0.02762 1.752696,-0.03928 0.01379,0.645533 -0.02138,1.320552 0.257739,1.92123 0.108578,0.253427 0.257704,0.486508 0.389781,0.727909 0.495403,-0.01033 0.990809,-0.02067 1.486215,-0.031 0.574843,-0.35714 1.149689,-0.714324 1.72453,-1.071463 -0.0411,-0.351973 0.08941,-0.686814 0.263704,-0.983269 0.33094,-0.60327 0.785088,-1.123087 1.185095,-1.678804 0.879591,-0.02067 1.785421,0.0036 2.626612,-0.248946 1.659389,-0.4408 3.202063,-1.224146 4.730739,-2.000506 1.429165,-0.743632 2.840953,-1.519914 4.262154,-2.278441 0.34918,-0.577748 0.698326,-1.155531 1.047471,-1.733279 -0.01379,-0.714636 -0.02758,-1.429235 -0.04,-2.14387 2.49998,-1.206461 5.009476,-2.394713 7.56659,-3.476286 1.461887,-0.636741 2.915706,-1.291421 4.409074,-1.85251 3.015112,-1.170053 6.057775,-2.273034 9.14033,-3.25289 0.670673,-0.217224 1.352792,-0.408729 2.052876,-0.500513 0.957238,-0.220332 1.883786,-0.554372 2.817198,-0.856795 3.011086,-1.012133 5.989926,-2.130116 8.941007,-3.297059 1.532946,-0.605328 3.043452,-1.267207 4.521478,-1.996568 0.259636,-0.12413 0.519308,-0.248261 0.778972,-0.372631 0.119302,-0.378074 0.355143,-0.779007 0.209294,-1.18232 -0.04623,-0.34987 0.186882,-0.654947 0.336188,-0.950921 0.23308,-0.353906 0.500235,-0.685782 0.746215,-1.031304 -0.0072,-0.510962 -0.01381,-1.021923 -0.02067,-1.5328485 C 83.634213,9.3774972 83.230722,9.0287942 82.827206,8.6801 82.172774,8.8073303 81.518343,8.9345608 80.863911,9.0615862 Z m -4.532515,1.3735117 c 0.45531,-0.02414 0.759836,0.58516 0.46265,0.933062 -0.249632,0.37435 -0.909338,0.264465 -1.020675,-0.173778 -0.127925,-0.357558 0.177572,-0.774383 0.558025,-0.759355 z M 49.019834,23.649753 c 0.768836,0.09275 1.537605,0.18689 2.306443,0.280331 -1.718661,0.855308 -3.452253,1.679899 -5.204978,2.463014 -0.01034,-0.397664 -0.01724,-0.795319 -0.02758,-1.192974 0.962547,-0.518133 1.924782,-1.036995 2.887433,-1.554986 l 0.02414,0.0026 z m -3.741402,2.248695 c 0.01034,0.458001 0.02069,0.915992 0.03104,1.373994 -0.499755,0.01033 -0.999441,0.02414 -1.49916,0.03448 -0.01034,-0.499719 -0.02069,-0.999438 -0.03448,-1.499166 0.49972,-0.01033 0.999407,-0.02414 1.499161,-0.03448 8.61e-4,0.04169 0.0012,0.08347 0.0025,0.125164 z m -4.787942,5.312138 c 0.253084,-0.01381 0.576094,0.105164 0.593472,0.399045 -0.0462,0.410554 -0.43245,0.647982 -0.722358,0.889579 -1.228871,0.920758 -2.590491,1.641291 -3.895872,2.444574 -0.334112,0.188948 -0.651986,0.417244 -1.006682,0.563681 -1.452612,0.484414 -2.905329,0.968445 -4.357844,1.453064 -0.328629,-0.31412 -0.65718,-0.628614 -0.98603,-0.942619 1.410698,-0.826177 2.921957,-1.457787 4.401533,-2.146907 1.622151,-0.735151 3.240267,-1.481884 4.821939,-2.301238 0.366248,-0.1624 0.743563,-0.349762 1.151842,-0.359179 z m -8.337203,0.182401 c 0.439398,-0.01381 0.844643,0.400906 0.774958,0.845624 -0.02413,0.406314 -0.240671,0.867112 -0.663983,0.974584 -0.144128,0.02414 -0.290771,0.01381 -0.436115,0.01729 0.129749,0.106197 0.08334,0.343082 -0.100682,0.343082 -0.476398,-8.91e-4 -0.954603,0.01729 -1.431717,0.02414 0.02035,-0.339972 -0.107475,-0.754768 0.169952,-1.023919 0.163435,-0.167576 0.412268,-0.155504 0.626262,-0.188262 -0.03275,0.127579 0.144197,0.112398 0.20895,0.19171 0.125852,0.08829 0.226638,0.207567 0.313838,0.333078 -0.01104,-0.501687 -0.02206,-1.003447 -0.0331,-1.505125 0.190571,-0.0036 0.381167,-0.01033 0.571763,-0.01381 z m -6.3051,1.08764 c 0.457853,0.09173 0.91574,0.183434 1.373531,0.275155 -0.579683,0.950958 -1.057936,1.971188 -1.756396,2.844465 -0.378011,0.452281 -0.923075,0.792565 -1.526003,0.800182 -0.32556,0.02067 -0.652184,0.01381 -0.978109,0.02762 0.06927,-0.745432 0.13916,-1.490819 0.208742,-2.23625 0.776999,-0.394064 1.549025,-0.794348 2.205309,-1.389199 0.152713,-0.105512 0.277496,-0.31446 0.472916,-0.322041 z m 1.226205,6.34941 c 0.170608,-0.01381 0.214915,0.173091 0.185331,0.305835 0.01104,0.507203 0.02276,1.014404 0.03414,1.521607 -0.403293,0.02067 -0.878598,0.06762 -1.189909,-0.247566 -0.108681,-0.09827 -0.212087,-0.2024 -0.318009,-0.303769 0.171435,-0.424238 0.250428,-0.963955 0.693194,-1.20125 0.174056,-0.122749 0.398067,-0.04204 0.595344,-0.07483 z m -10.296341,3.184892 c 0.901331,0.104816 1.80271,0.209642 2.704088,0.314112 -1.129834,0.54124 -2.259529,1.082784 -3.388998,1.624774 -0.585555,-0.100336 -1.17123,-0.199985 -1.756858,-0.299636 0.798494,-0.54802 1.596854,-1.096254 2.395116,-1.644631 l 0.02345,0.0026 z" />
  </g>
</svg>
