<?xml version="1.0" encoding="UTF-8" standalone="no"?>
<!-- Created with Inkscape (http://www.inkscape.org/) -->

<svg
   width="158.75mm"
   height="158.75mm"
   viewBox="0 0 158.75 158.75"
   version="1.1"
   id="svg4637"
   inkscape:version="1.2.2 (b0a8486541, 2022-12-01)"
   sodipodi:docname="logo.svg"
   xmlns:inkscape="http://www.inkscape.org/namespaces/inkscape"
   xmlns:sodipodi="http://sodipodi.sourceforge.net/DTD/sodipodi-0.dtd"
   xmlns="http://www.w3.org/2000/svg"
   xmlns:svg="http://www.w3.org/2000/svg">
  <sodipodi:namedview
     id="namedview4639"
     pagecolor="#ffffff"
     bordercolor="#666666"
     borderopacity="1.0"
     inkscape:showpageshadow="2"
     inkscape:pageopacity="0.0"
     inkscape:pagecheckerboard="0"
     inkscape:deskcolor="#d1d1d1"
     inkscape:document-units="mm"
     showgrid="false"
     inkscape:zoom="0.962928"
     inkscape:cx="285.06804"
     inkscape:cy="279.3563"
     inkscape:window-width="1855"
     inkscape:window-height="1050"
     inkscape:window-x="65"
     inkscape:window-y="30"
     inkscape:window-maximized="1"
     inkscape:current-layer="layer1" />
  <defs
     id="defs4634" />
  <g
     inkscape:label="Layer 1"
     inkscape:groupmode="layer"
     id="layer1"
     transform="translate(-17.038115,-98.838982)">
    <rect
       style="fill:#fefeff;fill-opacity:1;stroke:none;stroke-width:19.365;stroke-linecap:round;stroke-linejoin:round;paint-order:stroke fill markers"
       id="rect27122"
       width="158.75"
       height="158.75"
       x="17.038115"
       y="98.838982"
       ry="0"
       rx="0"
       inkscape:export-filename="logo.png"
       inkscape:export-xdpi="686.526"
       inkscape:export-ydpi="686.526" />
    <g
       id="g749"
       transform="matrix(2.6236335,0,0,2.6236335,1084.7299,140.72105)"
       style="stroke-width:0.38115">
      <path
         id="path498"
         style="font-weight:bold;font-size:15.7466px;line-height:125%;font-family:Arial;-inkscape-font-specification:'Arial Bold';text-align:center;letter-spacing:0px;word-spacing:0px;text-anchor:middle;fill:#4d5057;stroke:none;stroke-width:0.100847px"
         d="m -371.61429,29.305677 c -0.38172,0 -0.68974,0.125748 -0.92398,0.377338 -0.23424,0.250349 -0.35135,0.60244 -0.35135,1.056044 0,0.428816 0.11648,0.767065 0.34948,1.014939 0.233,0.246628 0.53047,0.369963 0.89236,0.369963 0.29249,0 0.53357,-0.07189 0.72319,-0.215656 0.19086,-0.145006 0.32715,-0.366145 0.40895,-0.66359 l -0.53352,-0.169175 c -0.0459,0.199534 -0.12143,0.345732 -0.22678,0.438684 -0.10535,0.09295 -0.23122,0.13944 -0.37746,0.13944 -0.1983,0 -0.35936,-0.07316 -0.48329,-0.219404 -0.12394,-0.146244 -0.18592,-0.391642 -0.18592,-0.736184 0,-0.32471 0.0626,-0.559566 0.18779,-0.70457 0.12642,-0.145004 0.29065,-0.217532 0.49267,-0.217532 0.14624,0 0.27008,0.0409 0.37171,0.122696 0.10287,0.0818 0.17044,0.193446 0.20266,0.334731 l 0.54477,-0.130192 c -0.062,-0.218127 -0.15495,-0.385409 -0.27888,-0.501911 -0.20821,-0.197055 -0.47902,-0.295621 -0.8124,-0.295621 z m -27.20141,0.04648 v 2.725327 h 0.55027 v -1.028057 h 0.35884 c 0.24911,0 0.43939,-0.01296 0.57076,-0.03898 0.0967,-0.02106 0.19142,-0.06387 0.28437,-0.128321 0.0942,-0.06569 0.17168,-0.155487 0.2324,-0.269509 0.0607,-0.114018 0.0911,-0.254752 0.0911,-0.422068 0,-0.216886 -0.0527,-0.39344 -0.15806,-0.529771 -0.10534,-0.137567 -0.23605,-0.22686 -0.3922,-0.267758 -0.10163,-0.02727 -0.31985,-0.04086 -0.65447,-0.04086 z m 19.6704,0 v 0.483293 h 0.5224 v -0.483293 z m 1.0578,0 v 2.725327 h 0.5224 v -2.725327 z m 1.05779,0 v 2.725327 h 0.5224 v -2.725327 z m 6.98262,0 v 0.483293 h 0.5224 v -0.483293 z m 1.60618,0.05398 -0.52427,0.304867 v 0.392208 h -0.23978 v 0.416444 h 0.23978 v 0.860754 c 0,0.184664 0.006,0.307363 0.0168,0.368092 0.0136,0.08552 0.0378,0.153597 0.0725,0.204411 0.0359,0.04958 0.0917,0.09047 0.1673,0.122699 0.0756,0.03098 0.16058,0.04648 0.25477,0.04648 0.15368,0 0.29124,-0.02604 0.4127,-0.07809 l -0.0446,-0.405202 c -0.0917,0.03346 -0.16183,0.05023 -0.21016,0.05023 -0.0347,0 -0.0644,-0.0088 -0.0892,-0.02612 -0.0236,-0.01736 -0.039,-0.03907 -0.0465,-0.0651 -0.006,-0.02727 -0.009,-0.121386 -0.009,-0.282503 v -0.795658 h 0.35697 v -0.416444 h -0.35697 z m -29.82452,0.407075 h 0.26588 c 0.1983,0 0.33027,0.0062 0.39596,0.01862 0.0892,0.0161 0.16303,0.05638 0.22128,0.120823 0.0582,0.06445 0.0873,0.146246 0.0873,0.245395 0,0.08056 -0.0211,0.151182 -0.0632,0.211909 -0.0409,0.06073 -0.0979,0.105312 -0.17105,0.133818 -0.0731,0.0285 -0.21805,0.04273 -0.43494,0.04273 h -0.30124 z m 2.88151,0.245393 c -0.19334,0 -0.36876,0.0428 -0.52615,0.12832 -0.15616,0.08552 -0.27696,0.20936 -0.36247,0.371714 -0.0855,0.162357 -0.1282,0.330275 -0.1282,0.503782 0,0.226802 0.0427,0.419614 0.1282,0.578252 0.0855,0.1574 0.21012,0.276922 0.37371,0.358721 0.16484,0.0818 0.33771,0.122696 0.51865,0.122696 0.29249,0 0.53471,-0.09793 0.72682,-0.293748 0.19333,-0.197057 0.29012,-0.444868 0.29012,-0.743553 0,-0.296207 -0.0955,-0.540971 -0.28638,-0.73431 -0.19086,-0.19458 -0.43562,-0.291874 -0.7343,-0.291874 z m 4.66811,0 c -0.0843,0 -0.15998,0.02108 -0.2269,0.06322 -0.0657,0.04214 -0.14,0.129527 -0.22303,0.262137 V 30.10321 h -0.48517 v 1.974273 h 0.52228 v -0.609737 c 0,-0.335867 0.0144,-0.556496 0.0428,-0.661839 0.0297,-0.105346 0.07,-0.177872 0.12083,-0.217533 0.0508,-0.0409 0.1128,-0.06135 0.18592,-0.06135 0.0756,0 0.1574,0.02858 0.24539,0.08559 l 0.16168,-0.455427 c -0.1103,-0.06569 -0.22487,-0.09858 -0.34385,-0.09858 z m 5.08443,0 c -0.2615,0 -0.47845,0.111521 -0.65072,0.334607 v -0.29 h -0.48516 v 1.974273 h 0.5224 V 31.18337 c 0,-0.220605 0.013,-0.371881 0.039,-0.45368 0.0273,-0.0818 0.0768,-0.147465 0.14869,-0.19704 0.0719,-0.04957 0.15317,-0.07434 0.24364,-0.07434 0.0706,0 0.13073,0.01729 0.1803,0.05198 0.0508,0.0347 0.0874,0.08373 0.1097,0.146937 0.0223,0.06197 0.0334,0.199527 0.0334,0.412697 v 1.007566 h 0.5224 v -1.22698 c 0,-0.152441 -0.01,-0.26955 -0.0297,-0.351348 -0.0186,-0.0818 -0.0526,-0.154958 -0.10221,-0.219406 -0.0483,-0.06445 -0.12023,-0.117032 -0.21566,-0.157932 -0.0954,-0.04214 -0.20073,-0.06322 -0.31599,-0.06322 z m 1.94641,0 c -0.2615,0 -0.47781,0.09298 -0.64884,0.27888 -0.17103,0.184662 -0.25652,0.440604 -0.25652,0.767793 0,0.273899 0.065,0.500626 0.19517,0.680334 0.16483,0.224323 0.41887,0.336478 0.76217,0.336478 0.21689,0 0.39725,-0.04953 0.54102,-0.148686 0.145,-0.100387 0.25094,-0.246075 0.31786,-0.436936 l -0.52052,-0.08734 c -0.0285,0.09915 -0.0707,0.171039 -0.12645,0.215658 -0.0558,0.04461 -0.12449,0.06697 -0.20629,0.06697 -0.12021,0 -0.22056,-0.04281 -0.30112,-0.128321 -0.0806,-0.08676 -0.12272,-0.207548 -0.12644,-0.362468 h 1.30869 c 0.007,-0.40031 -0.0737,-0.697152 -0.24353,-0.890491 -0.16979,-0.19458 -0.40147,-0.291874 -0.6952,-0.291874 z m 8.46598,0 c -0.2615,0 -0.47769,0.09298 -0.64872,0.27888 -0.17103,0.184662 -0.25664,0.440604 -0.25664,0.767793 0,0.273899 0.0652,0.500626 0.19529,0.680334 0.16484,0.224323 0.41887,0.336478 0.76217,0.336478 0.21689,0 0.39713,-0.04953 0.5409,-0.148686 0.145,-0.100387 0.25106,-0.246075 0.31798,-0.436936 l -0.52052,-0.08734 c -0.0285,0.09915 -0.0707,0.171039 -0.12645,0.215658 -0.0558,0.04461 -0.12461,0.06697 -0.20641,0.06697 -0.12022,0 -0.22056,-0.04281 -0.30112,-0.128321 -0.0806,-0.08676 -0.12272,-0.207548 -0.12644,-0.362468 h 1.30881 c 0.007,-0.40031 -0.0737,-0.697152 -0.24352,-0.890491 -0.16979,-0.19458 -0.4016,-0.291874 -0.69533,-0.291874 z m 8.39351,0 c -0.19334,0 -0.36863,0.0428 -0.52603,0.12832 -0.15615,0.08552 -0.27707,0.20936 -0.36259,0.371714 -0.0855,0.162357 -0.12819,0.330275 -0.12819,0.503782 0,0.226802 0.0427,0.419614 0.12819,0.578252 0.0855,0.1574 0.21012,0.276922 0.37372,0.358721 0.16483,0.0818 0.3377,0.122696 0.51865,0.122696 0.29248,0 0.53483,-0.09793 0.72693,-0.293748 0.19334,-0.197057 0.29,-0.444868 0.29,-0.743553 0,-0.296207 -0.0955,-0.540971 -0.28637,-0.73431 -0.19086,-0.19458 -0.43563,-0.291874 -0.73431,-0.291874 z m 4.30002,0 c -0.2615,0 -0.47781,0.09298 -0.64884,0.27888 -0.17104,0.184662 -0.25652,0.440604 -0.25652,0.767793 0,0.273899 0.065,0.500626 0.19517,0.680334 0.16483,0.224323 0.41887,0.336478 0.76217,0.336478 0.21689,0 0.39725,-0.04953 0.54102,-0.148686 0.145,-0.100387 0.25094,-0.246075 0.31786,-0.436936 l -0.52053,-0.08734 c -0.0285,0.09915 -0.0705,0.171039 -0.12632,0.215658 -0.0558,0.04461 -0.12461,0.06697 -0.20641,0.06697 -0.12022,0 -0.22056,-0.04281 -0.30112,-0.128321 -0.0806,-0.08676 -0.12272,-0.207548 -0.12644,-0.362468 h 1.30881 c 0.007,-0.40031 -0.0739,-0.697152 -0.24365,-0.890491 -0.16979,-0.19458 -0.40147,-0.291874 -0.6952,-0.291874 z m 2.49668,0 c -0.26151,0 -0.47845,0.111521 -0.65072,0.334607 v -0.29 h -0.48517 v 1.974273 h 0.5224 V 31.18337 c 0,-0.220605 0.013,-0.371881 0.039,-0.45368 0.0273,-0.0818 0.0769,-0.147465 0.14881,-0.19704 0.0719,-0.04957 0.15305,-0.07434 0.24352,-0.07434 0.0707,0 0.13073,0.01729 0.1803,0.05198 0.0508,0.0347 0.0874,0.08373 0.1097,0.146937 0.0223,0.06197 0.0335,0.199527 0.0335,0.412697 v 1.007566 h 0.5224 v -1.22698 c 0,-0.152441 -0.01,-0.26955 -0.0299,-0.351348 -0.0186,-0.0818 -0.0526,-0.154958 -0.10221,-0.219406 -0.0483,-0.06445 -0.12022,-0.117032 -0.21566,-0.157932 -0.0954,-0.04214 -0.20072,-0.06322 -0.31598,-0.06322 z m 2.32562,0 c -0.26151,0 -0.47832,0.111521 -0.6506,0.334607 v -0.29 h -0.48529 v 1.974273 h 0.5224 V 31.18337 c 0,-0.220605 0.0131,-0.371881 0.0391,-0.45368 0.0273,-0.0818 0.0768,-0.147465 0.14869,-0.19704 0.0719,-0.04957 0.15304,-0.07434 0.24352,-0.07434 0.0706,0 0.13072,0.01729 0.18029,0.05198 0.0508,0.0347 0.0874,0.08373 0.10971,0.146937 0.0223,0.06197 0.0335,0.199527 0.0335,0.412697 v 1.007566 h 0.5224 v -1.22698 c 0,-0.152441 -0.01,-0.26955 -0.0297,-0.351348 -0.0186,-0.0818 -0.0528,-0.154958 -0.10234,-0.219406 -0.0483,-0.06445 -0.12022,-0.117032 -0.21565,-0.157932 -0.0954,-0.04214 -0.20073,-0.06322 -0.31599,-0.06322 z m 1.94641,0 c -0.2615,0 -0.47781,0.09298 -0.64885,0.27888 -0.17103,0.184662 -0.25651,0.440604 -0.25651,0.767793 0,0.273899 0.065,0.500626 0.19517,0.680334 0.16483,0.224323 0.41899,0.336478 0.76229,0.336478 0.21689,0 0.39713,-0.04953 0.54089,-0.148686 0.14501,-0.100387 0.25107,-0.246075 0.31799,-0.436936 l -0.52052,-0.08734 c -0.0285,0.09915 -0.0707,0.171039 -0.12645,0.215658 -0.0558,0.04461 -0.12461,0.06697 -0.20641,0.06697 -0.12022,0 -0.22056,-0.04281 -0.30112,-0.128321 -0.0806,-0.08676 -0.12272,-0.207548 -0.12645,-0.362468 h 1.30882 c 0.007,-0.40031 -0.0737,-0.697152 -0.24353,-0.890491 -0.16979,-0.19458 -0.40159,-0.291874 -0.69532,-0.291874 z m -38.20866,0.04461 v 1.249209 c 0,0.185904 0.0235,0.331592 0.0706,0.436938 0.0471,0.105344 0.12331,0.187145 0.22865,0.245393 0.10535,0.05825 0.22436,0.08734 0.35698,0.08734 0.13013,0 0.25346,-0.03036 0.36996,-0.09108 0.11774,-0.06073 0.21249,-0.143798 0.28438,-0.249143 v 0.295623 h 0.48516 v -1.974273 h -0.52239 V 30.9361 c 0,0.282572 -0.013,0.460396 -0.039,0.533519 -0.026,0.07188 -0.0744,0.132598 -0.14506,0.182171 -0.0706,0.04834 -0.15054,0.07247 -0.23977,0.07247 -0.0781,0 -0.14248,-0.01792 -0.19329,-0.05385 -0.0508,-0.03718 -0.0861,-0.08684 -0.10596,-0.148811 -0.0186,-0.0632 -0.0279,-0.233539 -0.0279,-0.511154 v -0.907233 z m 4.86503,0 v 1.249209 c 0,0.185904 0.0235,0.331592 0.0706,0.436938 0.0471,0.105344 0.12343,0.187145 0.22878,0.245393 0.10534,0.05825 0.22423,0.08734 0.35684,0.08734 0.13014,0 0.25347,-0.03036 0.36997,-0.09108 0.11774,-0.06073 0.21262,-0.143798 0.2845,-0.249143 v 0.295623 h 0.48517 v -1.974273 h -0.5224 V 30.9361 c 0,0.282572 -0.013,0.460396 -0.039,0.533519 -0.026,0.07188 -0.0744,0.132598 -0.14507,0.182171 -0.0706,0.04834 -0.15054,0.07247 -0.23977,0.07247 -0.0781,0 -0.1426,-0.01792 -0.19342,-0.05385 -0.0508,-0.03718 -0.0861,-0.08684 -0.10595,-0.148811 -0.0186,-0.0632 -0.0279,-0.233539 -0.0279,-0.511154 v -0.907233 z m 7.58485,0 0.79566,1.974273 h 0.4703 l 0.78453,-1.974273 h -0.53726 l -0.37547,1.007564 c -0.0198,0.05577 -0.0385,0.111533 -0.0559,0.167304 -0.007,0.02727 -0.0253,0.08366 -0.0538,0.169177 l -0.10783,-0.336481 -0.37184,-1.007564 z m 2.37023,0 v 1.974273 h 0.5224 v -1.974273 z m 9.09821,0 v 1.974273 h 0.5224 v -1.974273 z m 4.40397,0 0.75106,1.979895 c -0.031,0.110303 -0.0756,0.20074 -0.13382,0.271383 -0.0583,0.07188 -0.14805,0.107829 -0.26951,0.107829 -0.0657,0 -0.13948,-0.008 -0.22128,-0.02411 l 0.0465,0.408949 c 0.0967,0.02106 0.19524,0.03161 0.29562,0.03161 0.0992,0 0.18768,-0.01054 0.26576,-0.03161 0.0793,-0.02106 0.14562,-0.05079 0.19892,-0.08921 0.0545,-0.03718 0.10229,-0.08621 0.14319,-0.146938 0.0421,-0.06073 0.0861,-0.148626 0.13194,-0.263885 l 0.12457,-0.343978 0.6972,-1.89993 h -0.54102 l -0.46105,1.401769 -0.47217,-1.401769 z m -18.01023,0.355096 c 0.10658,0 0.19702,0.03963 0.27138,0.118949 0.0744,0.07808 0.11335,0.192775 0.11707,0.343976 h -0.78078 c -10e-4,-0.142525 0.0353,-0.255316 0.1097,-0.338355 0.0744,-0.08303 0.1686,-0.12457 0.28263,-0.12457 z m 8.46597,0 c 0.10659,0 0.19702,0.03963 0.27139,0.118949 0.0744,0.07808 0.11347,0.192775 0.11719,0.343976 h -0.78078 c -10e-4,-0.142525 0.0353,-0.255316 0.1097,-0.338355 0.0744,-0.08303 0.16848,-0.12457 0.2825,-0.12457 z m 12.69353,0 c 0.10659,0 0.19702,0.03963 0.27139,0.118949 0.0744,0.07808 0.11335,0.192775 0.11707,0.343976 h -0.78079 c -10e-4,-0.142525 0.0353,-0.255316 0.10971,-0.338355 0.0744,-0.08303 0.1686,-0.12457 0.28262,-0.12457 z m 6.76871,0 c 0.10658,0 0.19702,0.03963 0.27138,0.118949 0.0744,0.07808 0.11348,0.192775 0.1172,0.343976 h -0.78078 c -10e-4,-0.142525 0.0352,-0.255316 0.10957,-0.338355 0.0744,-0.08303 0.16861,-0.12457 0.28263,-0.12457 z m -39.65691,0.02599 c 0.13633,0 0.25039,0.05208 0.3421,0.156182 0.0929,0.104105 0.13944,0.252842 0.13944,0.446184 0,0.198295 -0.0465,0.349448 -0.13944,0.453553 -0.0917,0.104106 -0.20577,0.156184 -0.3421,0.156184 -0.13633,0 -0.25103,-0.05208 -0.34398,-0.156184 -0.093,-0.104105 -0.13931,-0.253988 -0.13931,-0.449806 0,-0.195819 0.0464,-0.345826 0.13931,-0.449931 0.0929,-0.104106 0.20765,-0.156182 0.34398,-0.156182 z m 28.55844,0 c 0.13633,0 0.25039,0.05208 0.3421,0.156182 0.093,0.104105 0.13945,0.252842 0.13945,0.446184 0,0.198295 -0.0465,0.349448 -0.13945,0.453553 -0.0917,0.104106 -0.20577,0.156184 -0.3421,0.156184 -0.13633,0 -0.2509,-0.05208 -0.34385,-0.156184 -0.0929,-0.104105 -0.13944,-0.253988 -0.13944,-0.449806 0,-0.195819 0.0465,-0.345826 0.13944,-0.449931 0.093,-0.104106 0.20752,-0.156182 0.34385,-0.156182 z m 12.4184,1.070789 v 0.522399 h 0.25277 c -0.002,0.105346 -0.026,0.188414 -0.0706,0.249144 -0.0446,0.06073 -0.11955,0.108484 -0.2249,0.143187 l 0.10221,0.215533 c 0.11154,-0.03966 0.20324,-0.09415 0.27513,-0.163556 0.0731,-0.0694 0.12266,-0.148028 0.14868,-0.236024 0.026,-0.08676 0.0391,-0.205769 0.0391,-0.35697 V 31.55509 Z m -41.44439,2.063359 -0.25651,0.555887 h 0.33085 l 0.51128,-0.555887 z m 21.61494,0.66559 c -0.24416,0 -0.43252,0.05766 -0.56513,0.172925 -0.13138,0.114019 -0.19705,0.25336 -0.19705,0.418195 0,0.08923 0.0236,0.184115 0.0707,0.284502 0.0471,0.09915 0.11709,0.203813 0.21004,0.314116 -0.20697,0.102865 -0.36257,0.22442 -0.46667,0.364467 -0.10411,0.138809 -0.15606,0.295549 -0.15606,0.470297 0,0.192099 0.0663,0.361922 0.19891,0.509406 0.17103,0.190861 0.42634,0.28625 0.76592,0.28625 0.17103,0 0.3185,-0.0235 0.44243,-0.07059 0.12394,-0.0471 0.24105,-0.120257 0.35136,-0.219406 0.14252,0.132612 0.29126,0.236641 0.44618,0.312242 l 0.31599,-0.403327 c -0.0434,-0.02106 -0.11159,-0.06387 -0.20454,-0.128318 -0.0917,-0.06569 -0.16665,-0.125768 -0.2249,-0.1803 0.0397,-0.05205 0.0769,-0.116451 0.11157,-0.19329 0.0347,-0.07808 0.0756,-0.200777 0.1227,-0.368092 l -0.47217,-0.10783 c -0.0322,0.127656 -0.0707,0.231048 -0.11533,0.310369 l -0.37921,-0.500035 c 0.19954,-0.125177 0.33215,-0.237332 0.39783,-0.336481 0.0657,-0.09915 0.0985,-0.203936 0.0985,-0.314239 0,-0.17351 -0.0663,-0.320344 -0.19892,-0.44056 -0.13261,-0.120218 -0.31666,-0.180297 -0.55213,-0.180297 z m 3.7665,0 c -0.20945,0 -0.38855,0.03163 -0.53727,0.09483 -0.14748,0.06321 -0.26091,0.155548 -0.34023,0.277007 -0.0781,0.120216 -0.11707,0.249648 -0.11707,0.388457 0,0.215647 0.0836,0.39855 0.25089,0.548513 0.11898,0.106584 0.32601,0.196388 0.62098,0.269508 0.22928,0.05701 0.37612,0.09664 0.44056,0.118949 0.0942,0.03346 0.15986,0.07309 0.19704,0.118949 0.0384,0.04462 0.0576,0.09923 0.0576,0.163679 0,0.10039 -0.0452,0.188412 -0.13569,0.264013 -0.0892,0.07436 -0.22247,0.111451 -0.3997,0.111451 -0.16731,0 -0.30056,-0.04205 -0.39971,-0.126321 -0.0979,-0.08428 -0.16294,-0.216374 -0.19516,-0.396078 l -0.5354,0.0521 c 0.036,0.304882 0.1462,0.537323 0.33086,0.697199 0.18467,0.15864 0.44937,0.237897 0.79391,0.237897 0.23672,0 0.43436,-0.0329 0.59299,-0.09858 0.15864,-0.06693 0.28134,-0.168539 0.3681,-0.304869 0.0867,-0.136329 0.13007,-0.282527 0.13007,-0.438687 0,-0.172269 -0.0365,-0.316688 -0.10958,-0.433187 -0.0719,-0.117738 -0.17236,-0.210081 -0.30125,-0.277007 -0.12765,-0.06816 -0.32529,-0.133831 -0.59299,-0.197038 -0.2677,-0.06321 -0.43625,-0.123923 -0.50566,-0.182174 -0.0545,-0.04585 -0.0818,-0.100981 -0.0818,-0.165427 0,-0.07064 0.0292,-0.127039 0.0875,-0.169177 0.0905,-0.06569 0.21559,-0.09858 0.37547,-0.09858 0.15492,0 0.27076,0.03099 0.3476,0.09296 0.0781,0.06073 0.12888,0.161198 0.15243,0.301245 l 0.55026,-0.02424 c -0.009,-0.250349 -0.0997,-0.450528 -0.27325,-0.600491 -0.17227,-0.14996 -0.42936,-0.224902 -0.77142,-0.224902 z m -26.33703,0.04648 v 2.725327 h 2.07286 v -0.459177 h -1.5226 v -0.741806 h 1.36829 v -0.459177 h -1.36829 V 34.79157 h 1.47062 v -0.461051 z m 6.97887,0 v 2.725327 h 0.5224 v -2.725327 z m 5.70904,0 v 0.483293 h 0.5224 v -0.483293 z m 17.55681,0 v 2.725327 h 0.5224 v -2.725327 z m 1.0578,0 v 0.483293 h 0.52239 v -0.483293 z m 2.34598,0 v 0.981577 c -0.16111,-0.183424 -0.35189,-0.275131 -0.5725,-0.275131 -0.24043,0 -0.43934,0.08739 -0.59674,0.262137 -0.1574,0.17351 -0.23615,0.427545 -0.23615,0.762171 0,0.327189 0.0805,0.582495 0.24164,0.765921 0.16236,0.182186 0.35695,0.273257 0.58375,0.273257 0.11155,0 0.22192,-0.02718 0.33099,-0.08171 0.1103,-0.05577 0.20569,-0.14011 0.28625,-0.252891 v 0.29 h 0.48516 v -2.725327 z m 3.15489,0 v 0.483293 h 0.5224 v -0.483293 z m -14.21975,0.321611 c 0.0855,0 0.15297,0.0235 0.20254,0.0706 0.0508,0.04709 0.0762,0.104125 0.0762,0.171051 0,0.07932 -0.0519,0.159337 -0.15606,0.239895 l -0.14131,0.107829 -0.12832,-0.148811 c -0.0793,-0.09171 -0.11895,-0.169826 -0.11895,-0.234274 0,-0.05453 0.0235,-0.102164 0.0706,-0.143062 0.0471,-0.04214 0.11226,-0.06322 0.19529,-0.06322 z m -19.20572,0.384835 c -0.29373,0 -0.52668,0.09107 -0.69895,0.273257 -0.17227,0.180945 -0.25851,0.434346 -0.25851,0.760297 0,0.322232 0.0856,0.57449 0.25664,0.756675 0.17227,0.182186 0.40281,0.273257 0.69158,0.273257 0.25406,0 0.45666,-0.06008 0.60786,-0.180298 0.1512,-0.120218 0.25345,-0.298041 0.30674,-0.533519 l -0.51315,-0.08746 c -0.026,0.137568 -0.0706,0.234865 -0.13382,0.291874 -0.0632,0.05577 -0.14437,0.08371 -0.24352,0.08371 -0.13261,0 -0.23854,-0.04839 -0.31786,-0.145062 -0.0781,-0.09667 -0.1172,-0.262047 -0.1172,-0.496286 0,-0.21069 0.0385,-0.360698 0.11532,-0.449929 0.0781,-0.09047 0.18211,-0.135693 0.31224,-0.135693 0.0979,0 0.1773,0.02604 0.23803,0.07809 0.062,0.05205 0.10159,0.129532 0.11894,0.232399 l 0.51503,-0.09296 c -0.062,-0.21193 -0.16421,-0.369306 -0.30674,-0.472173 -0.14129,-0.104106 -0.33219,-0.156182 -0.57263,-0.156182 z m 2.17132,0 c -0.19334,0 -0.36863,0.04268 -0.52603,0.128195 -0.15615,0.08552 -0.27707,0.209483 -0.36259,0.37184 -0.0855,0.162354 -0.1282,0.330272 -0.1282,0.503782 0,0.226802 0.0427,0.419614 0.1282,0.578252 0.0855,0.157397 0.21012,0.276922 0.37371,0.35872 0.16483,0.0818 0.33771,0.122697 0.51865,0.122697 0.29249,0 0.53484,-0.09793 0.72694,-0.293748 0.19334,-0.197058 0.29,-0.444869 0.29,-0.743556 0,-0.296204 -0.0955,-0.540969 -0.28638,-0.734308 -0.19086,-0.194579 -0.43562,-0.291874 -0.7343,-0.291874 z m 3.38341,0 c -0.19334,0 -0.36862,0.04268 -0.52602,0.128195 -0.15616,0.08552 -0.27708,0.209483 -0.36259,0.37184 -0.0855,0.162354 -0.1282,0.330272 -0.1282,0.503782 0,0.226802 0.0427,0.419614 0.1282,0.578252 0.0855,0.157397 0.21011,0.276922 0.37371,0.35872 0.16483,0.0818 0.33771,0.122697 0.51865,0.122697 0.29249,0 0.53484,-0.09793 0.72694,-0.293748 0.19334,-0.197058 0.29,-0.444869 0.29,-0.743556 0,-0.296204 -0.0954,-0.540969 -0.28625,-0.734308 -0.19086,-0.194579 -0.43575,-0.291874 -0.73444,-0.291874 z m 2.14545,0 c -0.23671,0 -0.43511,0.08739 -0.59499,0.262137 -0.15864,0.174751 -0.2379,0.427516 -0.2379,0.758423 0,0.263982 0.0607,0.484614 0.18217,0.66184 0.15492,0.224324 0.36501,0.336481 0.63023,0.336481 0.23796,0 0.43496,-0.106569 0.59112,-0.319737 v 0.288123 c 0,0.1165 -0.008,0.196521 -0.0241,0.239898 -0.0236,0.06073 -0.0582,0.104678 -0.10408,0.131944 -0.0682,0.0409 -0.17042,0.06135 -0.30675,0.06135 -0.10658,0 -0.1847,-0.01854 -0.23427,-0.05573 -0.0359,-0.02603 -0.0589,-0.07379 -0.0688,-0.143188 l -0.59662,-0.07247 c -10e-4,0.02479 -0.002,0.04575 -0.002,0.0631 0,0.175988 0.07,0.32104 0.21003,0.435061 0.14005,0.115262 0.37732,0.172928 0.71195,0.172928 0.17723,0 0.32355,-0.01867 0.43881,-0.05585 0.1165,-0.03718 0.20948,-0.0885 0.27888,-0.154184 0.0694,-0.06569 0.12326,-0.156247 0.16168,-0.271506 0.0384,-0.115261 0.0576,-0.289403 0.0576,-0.522402 v -1.771611 h -0.48892 v 0.277006 c -0.15863,-0.214408 -0.35996,-0.321611 -0.60411,-0.321611 z m 3.40191,0 c -0.23795,0 -0.4375,0.08917 -0.59861,0.267635 -0.15988,0.177227 -0.23978,0.42453 -0.23978,0.741806 0,0.337102 0.0855,0.604222 0.25652,0.801279 0.145,0.168554 0.32969,0.252766 0.55401,0.252766 0.11774,0 0.22748,-0.0254 0.32911,-0.07622 0.10163,-0.05205 0.18647,-0.122038 0.25464,-0.210034 v 0.992699 h 0.5224 v -2.725327 h -0.48154 v 0.291874 c -0.0744,-0.112781 -0.15985,-0.197121 -0.25652,-0.252891 -0.0954,-0.05577 -0.20886,-0.08359 -0.34023,-0.08359 z m 4.66999,0 c -0.2615,0 -0.47781,0.09298 -0.64884,0.278881 -0.17104,0.184663 -0.25652,0.440603 -0.25652,0.767792 0,0.273897 0.065,0.500627 0.19517,0.680332 0.16483,0.224323 0.41887,0.336481 0.76217,0.336481 0.21689,0 0.39725,-0.04954 0.54102,-0.148687 0.145,-0.100386 0.25093,-0.246074 0.31786,-0.436935 l -0.52053,-0.08734 c -0.0285,0.09915 -0.0707,0.171039 -0.12644,0.215656 -0.0558,0.04462 -0.12449,0.06697 -0.20629,0.06697 -0.12022,0 -0.22056,-0.0428 -0.30112,-0.12832 -0.0806,-0.08675 -0.12272,-0.207549 -0.12644,-0.362468 h 1.30868 c 0.007,-0.400313 -0.0737,-0.697153 -0.24352,-0.890492 -0.16979,-0.194579 -0.40147,-0.291874 -0.6952,-0.291874 z m 9.66509,0 c -0.19334,0 -0.36875,0.04268 -0.52615,0.128195 -0.15616,0.08552 -0.27696,0.209483 -0.36247,0.37184 -0.0855,0.162354 -0.12832,0.330272 -0.12832,0.503782 0,0.226802 0.0428,0.419614 0.12832,0.578252 0.0855,0.157397 0.21012,0.276922 0.37371,0.35872 0.16484,0.0818 0.33771,0.122697 0.51865,0.122697 0.29249,0 0.53472,-0.09793 0.72682,-0.293748 0.19334,-0.197058 0.29,-0.444869 0.29,-0.743556 0,-0.296204 -0.0954,-0.540969 -0.28625,-0.734308 -0.19087,-0.194579 -0.43563,-0.291874 -0.73431,-0.291874 z m 6.64226,0 c -0.25655,0 -0.44987,0.04585 -0.58,0.137567 -0.13013,0.09171 -0.22184,0.232955 -0.27513,0.423816 l 0.47404,0.08559 c 0.0322,-0.09171 0.0744,-0.155599 0.12645,-0.191542 0.0521,-0.03718 0.12458,-0.05572 0.21753,-0.05572 0.13757,0 0.23118,0.02171 0.28075,0.0651 0.0496,0.04214 0.0743,0.113395 0.0743,0.213782 v 0.05198 c -0.0942,0.03966 -0.26338,0.08246 -0.50753,0.128321 -0.18095,0.0347 -0.31978,0.0756 -0.41645,0.122696 -0.0954,0.04586 -0.16974,0.112796 -0.22303,0.200789 -0.0533,0.08675 -0.08,0.185829 -0.08,0.297372 0,0.168553 0.0582,0.308018 0.17467,0.418318 0.11774,0.110302 0.27829,0.16543 0.48154,0.16543 0.11526,0 0.22374,-0.02171 0.32536,-0.0651 0.10163,-0.04338 0.19702,-0.108412 0.28625,-0.195167 0.004,0.0099 0.01,0.03037 0.0186,0.06135 0.0198,0.06816 0.0366,0.119606 0.0502,0.15431 h 0.51678 c -0.0459,-0.09419 -0.0775,-0.182215 -0.0948,-0.264013 -0.0161,-0.08304 -0.0242,-0.211325 -0.0242,-0.384833 l 0.006,-0.609737 c 0,-0.226803 -0.0235,-0.382273 -0.0706,-0.46655 -0.0459,-0.08552 -0.12587,-0.155628 -0.2399,-0.21016 -0.11402,-0.05577 -0.28752,-0.08359 -0.52052,-0.08359 z m 3.31657,0 c -0.0843,0 -0.15985,0.02108 -0.22678,0.06322 -0.0657,0.04214 -0.14011,0.129527 -0.22315,0.262137 v -0.280754 h -0.48517 v 1.974276 h 0.5224 v -0.609737 c 0,-0.335867 0.0142,-0.556496 0.0427,-0.66184 0.0297,-0.105346 0.07,-0.177872 0.12083,-0.217532 0.0508,-0.0409 0.11279,-0.06135 0.18592,-0.06135 0.0756,0 0.1574,0.02858 0.24539,0.08559 l 0.16181,-0.455553 c -0.11031,-0.06569 -0.225,-0.09846 -0.34398,-0.09846 z m 1.3218,0 c -0.2615,0 -0.47781,0.09298 -0.64884,0.278881 -0.17103,0.184663 -0.25651,0.440603 -0.25651,0.767792 0,0.273897 0.065,0.500627 0.19516,0.680332 0.16484,0.224323 0.41887,0.336481 0.76217,0.336481 0.21689,0 0.39726,-0.04954 0.54102,-0.148687 0.145,-0.100386 0.25094,-0.246074 0.31786,-0.436935 l -0.52052,-0.08734 c -0.0285,0.09915 -0.0707,0.171039 -0.12645,0.215656 -0.0558,0.04462 -0.12449,0.06697 -0.20628,0.06697 -0.12022,0 -0.22057,-0.0428 -0.30112,-0.12832 -0.0806,-0.08675 -0.12273,-0.207549 -0.12645,-0.362468 h 1.30869 c 0.007,-0.400313 -0.0737,-0.697153 -0.24352,-0.890492 -0.1698,-0.194579 -0.40148,-0.291874 -0.69521,-0.291874 z m -27.40781,0.0446 v 1.974276 h 0.5224 v -1.974276 z m 3.3723,0 v 1.249212 c 0,0.185901 0.0236,0.331592 0.0707,0.436938 0.0471,0.105343 0.1233,0.187142 0.22865,0.245393 0.10534,0.05825 0.22423,0.08734 0.35685,0.08734 0.13013,0 0.25346,-0.03036 0.36996,-0.09109 0.11774,-0.06073 0.21262,-0.143797 0.2845,-0.249143 v 0.295624 h 0.48517 v -1.974276 h -0.5224 v 0.832891 c 0,0.282575 -0.013,0.460398 -0.039,0.533521 -0.026,0.07188 -0.0744,0.132598 -0.14506,0.182171 -0.0706,0.04834 -0.15054,0.07247 -0.23977,0.07247 -0.0781,0 -0.1426,-0.01792 -0.19341,-0.05385 -0.0508,-0.03718 -0.0861,-0.08685 -0.10596,-0.148812 -0.0186,-0.06321 -0.0279,-0.233538 -0.0279,-0.511154 v -0.907235 z m 15.24231,0 v 1.974276 h 0.52239 v -1.974276 z m 5.50087,0 v 1.974276 h 0.5224 v -1.974276 z m -25.59147,0.355098 c 0.12889,0 0.23546,0.04954 0.31974,0.148686 0.0843,0.09915 0.12644,0.250935 0.12644,0.455428 0,0.195817 -0.0441,0.34392 -0.13206,0.44431 -0.088,0.09915 -0.19584,0.148809 -0.32349,0.148809 -0.11898,0 -0.21932,-0.04839 -0.30112,-0.145062 -0.0806,-0.09791 -0.12082,-0.251602 -0.12082,-0.461051 0,-0.199536 0.0403,-0.347639 0.12082,-0.444307 0.0818,-0.09791 0.18532,-0.146813 0.31049,-0.146813 z m 7.96969,0 c 0.10659,0 0.19702,0.03963 0.27139,0.118949 0.0743,0.07808 0.11335,0.192776 0.11707,0.343976 h -0.78079 c -10e-4,-0.142525 0.0353,-0.255318 0.1097,-0.338354 0.0744,-0.08304 0.16861,-0.124571 0.28263,-0.124571 z m 14.03196,0 c 0.12765,0 0.23231,0.05017 0.31411,0.15056 0.0818,0.09915 0.1227,0.26211 0.1227,0.488915 0,0.203252 -0.0421,0.35631 -0.12632,0.459177 -0.0843,0.101628 -0.18653,0.152434 -0.30675,0.152434 -0.1512,0 -0.26894,-0.06821 -0.35322,-0.204539 -0.0582,-0.09419 -0.0875,-0.246611 -0.0875,-0.457301 0,-0.195819 0.0415,-0.342651 0.12457,-0.44056 0.0843,-0.09915 0.18843,-0.148686 0.31237,-0.148686 z m 6.91377,0 c 0.10658,0 0.19702,0.03963 0.27138,0.118949 0.0744,0.07808 0.11335,0.192776 0.11707,0.343976 h -0.78079 c -10e-4,-0.142525 0.0354,-0.255318 0.10971,-0.338354 0.0744,-0.08304 0.1686,-0.124571 0.28263,-0.124571 z m -25.50789,0.0092 c 0.12394,0 0.22682,0.04954 0.30862,0.148686 0.083,0.09791 0.12457,0.247914 0.12457,0.449931 0,0.213166 -0.0452,0.373716 -0.13569,0.481543 -0.0905,0.107822 -0.19577,0.161679 -0.31599,0.161679 -0.12022,0 -0.22132,-0.04776 -0.30312,-0.143188 -0.0818,-0.09667 -0.12269,-0.253413 -0.12269,-0.470297 0,-0.218129 0.0422,-0.377408 0.12644,-0.477795 0.0855,-0.100387 0.19145,-0.150559 0.31786,-0.150559 z m -9.06834,0.01673 c 0.13633,0 0.25039,0.05208 0.3421,0.156184 0.093,0.104106 0.13944,0.252842 0.13944,0.446181 0,0.198298 -0.0465,0.349451 -0.13944,0.453556 -0.0917,0.104106 -0.20577,0.156182 -0.3421,0.156182 -0.13633,0 -0.2509,-0.05208 -0.34385,-0.156182 -0.0929,-0.104105 -0.13944,-0.253988 -0.13944,-0.449806 0,-0.195819 0.0465,-0.345825 0.13944,-0.449931 0.093,-0.104106 0.20752,-0.156184 0.34385,-0.156184 z m 3.38342,0 c 0.13633,0 0.25039,0.05208 0.3421,0.156184 0.093,0.104106 0.13944,0.252842 0.13944,0.446181 0,0.198298 -0.0465,0.349451 -0.13944,0.453556 -0.0917,0.104106 -0.20577,0.156182 -0.3421,0.156182 -0.13633,0 -0.2509,-0.05208 -0.34386,-0.156182 -0.093,-0.104105 -0.13943,-0.253988 -0.13943,-0.449806 0,-0.195819 0.0465,-0.345825 0.13943,-0.449931 0.093,-0.104106 0.20753,-0.156184 0.34386,-0.156184 z m 19.88243,0 c 0.13633,0 0.25027,0.05208 0.34198,0.156184 0.093,0.104106 0.13944,0.252842 0.13944,0.446181 0,0.198298 -0.0465,0.349451 -0.13944,0.453556 -0.0917,0.104106 -0.20565,0.156182 -0.34198,0.156182 -0.13633,0 -0.25102,-0.05208 -0.34398,-0.156182 -0.093,-0.104105 -0.13944,-0.253988 -0.13944,-0.449806 0,-0.195819 0.0465,-0.345825 0.13944,-0.449931 0.093,-0.104106 0.20765,-0.156184 0.34398,-0.156184 z m -6.45647,0.345853 0.53165,0.656215 c -0.0892,0.07436 -0.17155,0.127583 -0.24714,0.159809 -0.0756,0.03222 -0.15436,0.04835 -0.23615,0.04835 -0.12394,0 -0.22314,-0.03531 -0.2975,-0.105953 -0.0731,-0.07188 -0.10958,-0.164226 -0.10958,-0.277007 0,-0.08923 0.0297,-0.176621 0.0892,-0.262136 0.0595,-0.08552 0.1493,-0.158554 0.26951,-0.21928 z m 13.41485,0.299246 v 0.104079 c 0,0.125174 -0.007,0.210147 -0.0205,0.254767 -0.0198,0.06816 -0.0614,0.125704 -0.12457,0.172799 -0.0855,0.06197 -0.17532,0.09296 -0.26951,0.09296 -0.0843,0 -0.15376,-0.02667 -0.20829,-0.07997 -0.0545,-0.05329 -0.0817,-0.116419 -0.0817,-0.189542 0,-0.07436 0.034,-0.135712 0.1022,-0.184045 0.0446,-0.02975 0.13938,-0.0601 0.28438,-0.09109 0.14501,-0.03099 0.25106,-0.05766 0.31799,-0.07997 z" />
      <path
         id="path14454-9"
         style="fill:#a6cc1d;fill-opacity:1;stroke-width:7.38102;stroke-linecap:round;stroke-linejoin:round;paint-order:stroke fill markers"
         d="m -388.52373,18.226235 21.17301,1.623145 v 5.958847 h -23.29016 z"
         sodipodi:nodetypes="ccccc" />
      <path
         id="path14456-1"
         style="fill:#06aed5;fill-opacity:1;stroke-width:7.38102;stroke-linecap:round;stroke-linejoin:round;paint-order:stroke fill markers"
         d="m -385.02466,16.537234 c -0.43606,1.810445 4.55118,3.728933 5.12316,9.270997 h -10.70906 c 2.22103,-3.098861 4.79772,-4.897715 4.67688,-8.471472 z"
         sodipodi:nodetypes="ccccc" />
      <path
         style="fill:#06aed5;fill-opacity:1;fill-rule:evenodd;stroke:none;stroke-width:0.100846px;stroke-linecap:butt;stroke-linejoin:miter;stroke-opacity:1"
         d="m -363.0232,13.69261 c -0.51702,14.831949 -15.90397,12.362787 -22.36404,7.015979 l 5.5202,-4.928951 c 4.3842,2.672463 7.99589,4.404828 16.84384,-2.087028 z"
         id="path14458-2"
         sodipodi:nodetypes="cccc" />
      <path
         id="path14464-7"
         style="fill:#eee21e;fill-opacity:1;stroke-width:7.38102;stroke-linecap:round;stroke-linejoin:round;paint-order:stroke fill markers"
         d="m -368.70667,-2.6008247 a 5.1592442,5.1592442 0 0 0 -5.15928,5.1591506 5.1592442,5.1592442 0 0 0 5.15928,5.1592788 5.1592442,5.1592442 0 0 0 1.01469,-0.1040815 l -0.26426,18.1946598 h 3.92556 l -2.90288,-18.408067 a 5.1592442,5.1592442 0 0 0 3.38617,-4.8417901 5.1592442,5.1592442 0 0 0 -5.15928,-5.1591506 z" />
      <path
         id="rect14472-0"
         style="fill:#a6cc1d;fill-opacity:1;stroke:none;stroke-width:7.38102;stroke-linecap:round;stroke-linejoin:round;paint-order:stroke fill markers"
         d="m -367.94775,4.668292 a 2.4439952,2.4439952 0 0 0 -2.23716,1.4643695 3.1738233,3.1738233 0 0 0 -2.34899,-1.039678 3.1738233,3.1738233 0 0 0 -3.17375,3.1737573 3.1738233,3.1738233 0 0 0 0.33285,1.4087685 6.009695,6.009695 0 0 0 -0.34635,0.9467187 3.1738236,3.1738236 0 0 0 -1.3844,2.62112 3.1738236,3.1738236 0 0 0 2.88576,3.159262 6.009695,6.009695 0 0 0 0.14118,0.147562 v 9.258011 h 6.72785 V 17.63608 a 6.009695,6.009695 0 0 0 2.48381,-2.194055 3.1738233,3.1738233 0 0 0 2.08623,-2.979342 3.1738233,3.1738233 0 0 0 -0.29825,-1.343295 2.4439952,2.4439952 0 0 0 0.27463,-1.1221419 2.4439952,2.4439952 0 0 0 -2.44395,-2.4439468 2.4439952,2.4439952 0 0 0 -0.30111,0.020117 2.4439952,2.4439952 0 0 0 0.0457,-0.461177 2.4439952,2.4439952 0 0 0 -2.44407,-2.4439468 z" />
      <g
         id="g54865"
         transform="matrix(0.24178558,0,0,0.24178558,-441.88236,-44.426316)"
         style="stroke-width:0.38115">
        <path
           id="path14484-9"
           style="fill:#4d5057;fill-opacity:1;stroke-width:30.5271;stroke-linecap:round;stroke-linejoin:round;paint-order:stroke fill markers"
           d="m 264.32896,145.6723 -6.65799,19.04173 h 0.0129 v 35.23403 l -0.39532,-1.11983 -0.19172,0.54312 -0.13436,-0.37879 -3.14451,8.91057 v -7.96076 h 5.1e-4 l -5.1e-4,-0.001 -5.57692,-17.12402 -5.55109,17.12402 h -0.002 v 18.26038 l 1.572,0.3421 v 71.93876 h 29.67209 9.6852 v -71.91189 l 1.5689,-0.49661 V 199.8137 h -0.001 l -5.06429,-17.11575 -5.05137,17.11575 h -10e-4 v 8.58914 l -3.38223,-9.57461 -0.19172,0.5395 -0.13074,-0.37517 -0.39584,1.11983 v -35.39836 h 0.0196 z" />
        <path
           id="circle14508-3"
           style="fill:#fefeff;stroke-width:30.5271;stroke-linecap:round;stroke-linejoin:round;paint-order:stroke fill markers"
           d="m 271.42348,213.59319 a 7.2585363,7.2585363 0 0 1 -7.25853,7.25853 7.2585363,7.2585363 0 0 1 -7.25854,-7.25853 7.2585363,7.2585363 0 0 1 7.25854,-7.25854 7.2585363,7.2585363 0 0 1 7.25853,7.25854 z" />
      </g>
      <g
         id="g54861"
         transform="matrix(0.24178558,0,0,0.24178558,-441.88236,-44.426316)"
         style="stroke-width:0.38115">
        <path
           id="ellipse14488-6"
           style="fill:#fefeff;stroke-width:30.5271;stroke-linecap:round;stroke-linejoin:round;paint-order:stroke fill markers"
           d="m 259.50497,223.16059 -6.52105,8.25376 a 51.223782,27.046904 0 0 0 -34.09973,25.49044 51.223782,27.046904 0 0 0 51.22375,27.04692 51.223782,27.046904 0 0 0 51.22375,-27.04692 51.223782,27.046904 0 0 0 -51.22375,-27.04693 51.223782,27.046904 0 0 0 -7.80883,0.32814 z" />
        <path
           id="path625"
           style="font-weight:normal;font-size:21.1394px;line-height:125%;font-family:'Arial Black';-inkscape-font-specification:'Arial Black, ';text-align:center;letter-spacing:0px;word-spacing:0px;text-anchor:middle;fill:#4d5057;stroke-width:0.41709px"
           d="m 256.6948,241.52226 c -2.45663,0 -4.37326,0.6877 -5.74952,2.06396 -1.37626,1.37626 -2.06395,3.2998 -2.06395,5.77019 0,1.76849 0.3473,3.24111 1.04231,4.41782 0.69501,1.1767 1.59979,2.0371 2.71456,2.58072 1.12166,0.54362 2.53607,0.81545 4.24264,0.81545 1.67904,0 3.07912,-0.31328 4.20078,-0.93947 1.12854,-0.63308 1.98893,-1.51368 2.58072,-2.64222 0.59867,-1.13541 0.89762,-2.58783 0.89762,-4.35632 0,-2.43599 -0.68079,-4.32793 -2.04329,-5.67666 -1.3625,-1.35562 -3.30331,-2.03347 -5.82187,-2.03347 z m -23.60631,0.25787 v 15.13189 h 6.94687 c 0.83264,0 1.76159,-0.13764 2.78691,-0.41289 0.75006,-0.19956 1.45157,-0.59867 2.10529,-1.19735 0.65372,-0.60555 1.16336,-1.35196 1.52808,-2.23965 0.37158,-0.89457 0.55707,-2.15062 0.55707,-3.76773 0,-1.03219 -0.12383,-2.00899 -0.37156,-2.93109 -0.24772,-0.92209 -0.64683,-1.73068 -1.19734,-2.42569 -0.5505,-0.69501 -1.24907,-1.22831 -2.09548,-1.5999 -0.83952,-0.37159 -1.9436,-0.55759 -3.31297,-0.55759 z m 34.00051,0 v 9.02115 c 0,0.74319 0.14455,1.59667 0.43357,2.56005 0.17891,0.59868 0.50947,1.18033 0.99115,1.7446 0.48857,0.56427 1.02533,1.00085 1.61024,1.31051 0.58491,0.30278 1.3106,0.50605 2.17764,0.60927 0.87393,0.10322 1.67906,0.15503 2.41536,0.15503 1.27305,0 2.36382,-0.16873 3.27215,-0.50591 0.65372,-0.24084 1.27631,-0.65723 1.8681,-1.24902 0.59868,-0.59868 1.03578,-1.2938 1.31104,-2.08515 0.28213,-0.79823 0.42323,-1.6448 0.42323,-2.53938 v -9.02115 h -4.66535 v 9.23819 c 0,0.83952 -0.2309,1.48974 -0.69195,1.95079 -0.45417,0.45417 -1.08366,0.68109 -1.88877,0.68109 -0.812,0 -1.44839,-0.23037 -1.90945,-0.69143 -0.45416,-0.46792 -0.68109,-1.11469 -0.68109,-1.94045 v -9.23819 z m 21.03644,0 -5.6875,15.13189 h 4.77903 l 0.73277,-2.49804 h 5.32629 l 0.74311,2.49804 h 4.89273 l -5.68751,-15.13189 z m 12.46901,0 v 15.13189 h 4.68602 v -15.13189 z m -43.90998,3.28248 c 0.98403,0 1.76153,0.33004 2.33267,0.99064 0.57804,0.65373 0.86713,1.69269 0.86713,3.11712 0,1.69281 -0.27528,2.86648 -0.82579,3.5202 -0.5505,0.65373 -1.328,0.9803 -2.33267,0.9803 -0.97715,0 -1.75119,-0.33348 -2.32234,-1.00097 -0.56426,-0.66748 -0.84646,-1.76517 -0.84646,-3.29282 0,-1.54141 0.28565,-2.64601 0.8568,-3.31349 0.57114,-0.66749 1.32792,-1.00098 2.27066,-1.00098 z m -18.92029,0.14418 h 1.16633 c 1.21112,0 2.07842,0.29601 2.6014,0.8878 0.52298,0.5918 0.78444,1.68948 0.78444,3.29283 0,1.21111 -0.11691,2.08826 -0.35088,2.63188 -0.23397,0.53674 -0.5576,0.91564 -0.97048,1.13584 -0.41288,0.21332 -1.108,0.31988 -2.08515,0.31988 h -1.14566 z m 52.85879,0.49558 1.67225,5.43998 h -3.33365 z m -57.37428,16.07602 v 0.52452 h 70.97655 v -0.52452 z m 10.80554,4.06435 c -1.377,0 -2.48816,0.45359 -3.33313,1.36116 -0.84497,0.90309 -1.2671,2.17277 -1.2671,3.80907 0,1.54688 0.41989,2.76764 1.26038,3.66179 0.84051,0.88969 1.91346,1.33429 3.21893,1.33429 1.0551,0 1.92512,-0.25912 2.60914,-0.77773 0.6885,-0.52308 1.1803,-1.32119 1.47536,-2.39417 l -1.92494,-0.6103 c -0.16542,0.71979 -0.43803,1.24754 -0.81804,1.58285 -0.38001,0.3353 -0.8336,0.50281 -1.36116,0.50281 -0.71532,0 -1.297,-0.26361 -1.74408,-0.79117 -0.44708,-0.52754 -0.67024,-1.41278 -0.67024,-2.65565 0,-1.17134 0.22541,-2.01888 0.67696,-2.54196 0.45601,-0.52308 1.04841,-0.78445 1.77715,-0.78445 0.52755,0 0.97492,0.1478 1.34152,0.44287 0.37108,0.29507 0.61447,0.69697 0.73071,1.20664 l 1.96525,-0.46922 c -0.22354,-0.78685 -0.55906,-1.39049 -1.00614,-1.81074 -0.75109,-0.71086 -1.72794,-1.06609 -2.93057,-1.06609 z m 47.75471,0 c -0.52308,0 -0.95696,0.0939 -1.30121,0.28164 -0.33978,0.1833 -0.57418,0.42219 -0.70384,0.71727 -0.12518,0.29506 -0.1881,0.74243 -0.1881,1.34152 v 0.5364 h -1.04593 v 1.48208 h 1.04593 v 5.63996 h 1.88464 v -5.63996 h 1.40818 v -1.48208 h -1.40818 v -0.50281 c 0,-0.36214 0.0579,-0.60604 0.17415,-0.73122 0.12071,-0.12966 0.31743,-0.19431 0.59015,-0.19431 0.27718,0 0.56552,0.036 0.86506,0.10749 l 0.25476,-1.31465 c -0.51413,-0.16095 -1.03912,-0.24133 -1.57561,-0.24133 z m -33.71215,0.16743 v 9.83144 h 1.88464 v -9.83144 z m 3.81578,0 v 9.83144 h 1.88464 v -9.83144 z m 23.66626,0 v 1.74357 h 1.88412 v -1.74357 z m 11.54245,0 v 2.30684 l 0.48989,4.98936 h 1.06608 l 0.48266,-4.98936 v -2.30684 z m -14.13764,0.19482 -1.89136,1.09968 v 1.4149 h -0.86506 v 1.50223 h 0.86506 v 3.10472 c 0,0.66614 0.0203,1.10902 0.0605,1.32809 0.0492,0.30848 0.13631,0.55412 0.26149,0.73742 0.12965,0.17883 0.33086,0.32663 0.60358,0.44287 0.27271,0.11176 0.57902,0.16743 0.9188,0.16743 0.55438,0 1.05067,-0.0939 1.4888,-0.28164 l -0.16123,-1.46192 c -0.33084,0.12071 -0.58322,0.18138 -0.75758,0.18138 -0.12518,0 -0.23253,-0.0315 -0.32194,-0.0941 -0.085,-0.0626 -0.14063,-0.14073 -0.16743,-0.23461 -0.0223,-0.0984 -0.0336,-0.43838 -0.0336,-1.01958 v -2.87011 h 1.28726 v -1.50223 h -1.28726 z m -30.04365,2.35387 c -0.69743,0 -1.33028,0.15401 -1.89807,0.4625 -0.56332,0.30848 -0.99893,0.75533 -1.30741,1.341 -0.30849,0.58567 -0.46303,1.19156 -0.46303,1.81746 0,0.81816 0.15454,1.5134 0.46303,2.08566 0.30848,0.56779 0.75757,0.99943 1.34772,1.2945 0.5946,0.29507 1.21847,0.44235 1.8712,0.44235 1.0551,0 1.92909,-0.35299 2.62206,-1.05937 0.69744,-0.71085 1.04593,-1.60507 1.04593,-2.68252 0,-1.06851 -0.34399,-1.9515 -1.03249,-2.64894 -0.6885,-0.70191 -1.57148,-1.05264 -2.64894,-1.05264 z m 15.50448,0 c -0.94332,0 -1.72345,0.33501 -2.34042,1.00562 -0.61697,0.66614 -0.92553,1.58958 -0.92553,2.76986 0,0.98803 0.23493,1.80584 0.70435,2.45411 0.59462,0.8092 1.5113,1.21388 2.74971,1.21388 0.78238,0 1.43269,-0.17874 1.9513,-0.5364 0.52308,-0.36214 0.90528,-0.88763 1.1467,-1.57613 l -1.87792,-0.31471 c -0.10284,0.35766 -0.25461,0.61677 -0.45579,0.77773 -0.20118,0.16094 -0.44958,0.24133 -0.74466,0.24133 -0.43366,0 -0.79563,-0.15402 -1.08623,-0.46251 -0.29062,-0.31295 -0.44239,-0.74908 -0.45579,-1.30793 h 4.72116 c 0.0268,-1.44405 -0.266,-2.51477 -0.8785,-3.21221 -0.61249,-0.70191 -1.4488,-1.05264 -2.50838,-1.05264 z m 7.96024,0 c -1.05957,0 -1.89985,0.32826 -2.52129,0.98546 -0.62143,0.65273 -0.93224,1.56718 -0.93224,2.74299 0,1.1624 0.30856,2.07234 0.92552,2.72955 0.62143,0.6572 1.45273,0.98547 2.49442,0.98547 0.91651,0 1.64772,-0.21694 2.19315,-0.65061 0.54543,-0.43366 0.91415,-1.07498 1.10639,-1.92443 l -1.85105,-0.31522 c -0.0939,0.49625 -0.25464,0.84751 -0.48265,1.05316 -0.22801,0.20119 -0.52084,0.30127 -0.8785,0.30127 -0.47838,0 -0.86058,-0.17424 -1.1467,-0.52296 -0.28166,-0.34872 -0.42272,-0.94562 -0.42272,-1.79059 0,-0.76003 0.13881,-1.30075 0.416,-1.62264 0.28166,-0.32637 0.65712,-0.48937 1.12654,-0.48937 0.3532,0 0.63928,0.0939 0.85835,0.28163 0.22353,0.18777 0.36683,0.46712 0.42943,0.83819 l 1.85725,-0.33538 c -0.22354,-0.7645 -0.59225,-1.33218 -1.10639,-1.70325 -0.50967,-0.37555 -1.19818,-0.56327 -2.06551,-0.56327 z m 9.17412,0.16071 v 7.12204 h 1.88412 v -7.12204 z m -17.02015,1.28106 c 0.38449,0 0.71051,0.14278 0.97875,0.42891 0.26825,0.28166 0.40931,0.69532 0.42271,1.24075 h -2.81636 c -0.004,-0.51414 0.12708,-0.92105 0.39532,-1.22059 0.26825,-0.29955 0.60827,-0.44907 1.01958,-0.44907 z m -15.61197,0.0935 c 0.49178,0 0.9032,0.18773 1.23404,0.56327 0.3353,0.37554 0.50281,0.91229 0.50281,1.60973 0,0.71532 -0.16751,1.26053 -0.50281,1.63607 -0.33084,0.37555 -0.74226,0.56327 -1.23404,0.56327 -0.49178,0 -0.90544,-0.18772 -1.24075,-0.56327 -0.3353,-0.37554 -0.50281,-0.91626 -0.50281,-1.62264 0,-0.70638 0.16751,-1.24762 0.50281,-1.62316 0.33531,-0.37554 0.74897,-0.56327 1.24075,-0.56327 z m 44.25518,3.86282 v 1.88463 h 1.88464 v -1.88463 z" />
      </g>
    </g>
  </g>
</svg>
